<svg width="31" height="36" viewBox="0 0 31 36" fill="none" xmlns="http://www.w3.org/2000/svg">
<rect y="5.60132" width="30" height="30" rx="15" fill="white"/>
<path d="M6.70667 14.0144L7.59123 14.1913C8.20021 14.3131 8.65827 14.8183 8.72007 15.4362L8.8452 16.6876M8.8452 16.6876L9.61237 23.0806C9.69758 23.7907 10.3 24.3252 11.0153 24.3252H18.1419C19.2765 24.3252 20.2656 23.553 20.5408 22.4522L21.4772 18.7066C21.7336 17.681 20.9579 16.6876 19.9008 16.6876H8.8452Z" stroke="#0063A9" stroke-width="1.05971" stroke-linecap="round"/>
<path d="M15.368 19.5469H11.702" stroke="#0063A9" stroke-width="1.05971" stroke-linecap="round" stroke-linejoin="round"/>
<circle cx="11.6708" cy="26.9982" r="1.14564" fill="#0063A9"/>
<circle cx="18.5444" cy="26.9982" r="1.14564" fill="#0063A9"/>
<circle cx="25" cy="6" r="6" fill="#DC3434"/>
<path d="M25.928 8H23.216V7.544L24.698 6.032C25.094 5.636 25.292 5.296 25.292 5.012C25.292 4.78 25.22 4.598 25.076 4.466C24.936 4.33 24.76 4.262 24.548 4.262C24.152 4.262 23.864 4.45 23.684 4.826L23.216 4.55C23.344 4.282 23.524 4.078 23.756 3.938C23.988 3.794 24.25 3.722 24.542 3.722C24.898 3.722 25.204 3.838 25.46 4.07C25.72 4.306 25.85 4.618 25.85 5.006C25.85 5.43 25.6 5.892 25.1 6.392L24.026 7.46H25.928V8Z" fill="white"/>
</svg>
