<svg width="115" height="30" viewBox="0 0 115 30" fill="none" xmlns="http://www.w3.org/2000/svg">
<path d="M17.5111 14.2613C17.5234 13.3164 17.7778 12.3899 18.2506 11.568C18.7234 10.7461 19.3992 10.0556 20.2151 9.56063C19.6968 8.83022 19.013 8.22912 18.218 7.80506C17.423 7.38101 16.5387 7.14569 15.6354 7.11779C13.7084 6.91819 11.8404 8.25537 10.8584 8.25537C9.85757 8.25537 8.34575 7.1376 6.71781 7.17066C5.66478 7.2042 4.63851 7.5063 3.73901 8.04752C2.8395 8.58874 2.09742 9.35063 1.58509 10.2589C-0.634155 14.0499 1.02121 19.6213 3.14716 22.6855C4.21077 24.1861 5.45373 25.8621 7.0803 25.8027C8.67186 25.7376 9.26626 24.8013 11.1876 24.8013C13.0911 24.8013 13.6488 25.8027 15.3083 25.7649C17.0162 25.7376 18.0922 24.2578 19.1185 22.743C19.8827 21.6739 20.4707 20.4922 20.8608 19.2419C19.8686 18.8278 19.0218 18.1347 18.4262 17.249C17.8305 16.3634 17.5122 15.3243 17.5111 14.2613ZM14.3766 5.10245C15.3078 3.9995 15.7666 2.58185 15.6555 1.15056C14.2328 1.29799 12.9186 1.96885 11.9748 3.02948C11.5133 3.54763 11.1599 4.15043 10.9347 4.80342C10.7095 5.45641 10.617 6.14679 10.6624 6.83509C11.374 6.84233 12.078 6.69015 12.7214 6.39003C13.3647 6.0899 13.9307 5.64966 14.3766 5.10245ZM37.6305 22.0041H32.1989L30.8946 25.804H28.5939L33.7386 11.745H36.1289L41.2735 25.804H38.9337L37.6305 22.0041ZM32.7614 20.2505H37.0668L34.9444 14.0835H34.885L32.7614 20.2505ZM52.3842 20.6796C52.3842 23.8648 50.6562 25.9113 48.0486 25.9113C47.3881 25.9454 46.7311 25.7952 46.153 25.4781C45.5749 25.1609 45.099 24.6896 44.7798 24.1179H44.7304V29.1949H42.598V15.5539H44.6622V17.2588H44.7014C45.0353 16.6899 45.5192 16.221 46.1017 15.9019C46.6842 15.5828 47.3435 15.4255 48.0094 15.4467C50.6461 15.4467 52.3842 17.5031 52.3842 20.6795V20.6796ZM50.1923 20.6796C50.1923 18.6044 49.1054 17.24 47.4469 17.24C45.8175 17.24 44.7216 18.633 44.7216 20.6795C44.7216 22.7449 45.8175 24.128 47.4469 24.128C49.1054 24.128 50.1923 22.7736 50.1923 20.6795V20.6796ZM63.8187 20.6796C63.8187 23.8648 62.0908 25.9113 59.4831 25.9113C58.8226 25.9453 58.1657 25.7952 57.5876 25.4781C57.0095 25.1609 56.5336 24.6895 56.2144 24.1179H56.1651V29.1949H54.0326V15.5539H56.0967V17.2588H56.1359C56.4698 16.6899 56.9537 16.221 57.5362 15.9019C58.1187 15.5828 58.778 15.4255 59.4439 15.4467C62.0807 15.4467 63.8187 17.5031 63.8187 20.6795V20.6796ZM61.6269 20.6796C61.6269 18.6044 60.5399 17.24 58.8814 17.24C57.252 17.24 56.1561 18.633 56.1561 20.6795C56.1561 22.7449 57.252 24.128 58.8814 24.128C60.5399 24.128 61.6269 22.7736 61.6269 20.6795V20.6796ZM71.3761 21.8869C71.5341 23.281 72.9068 24.1965 74.7826 24.1965C76.58 24.1965 77.8733 23.281 77.8733 22.0239C77.8733 20.9326 77.0933 20.2793 75.2467 19.8315L73.3998 19.3926C70.7833 18.769 69.5685 17.5616 69.5685 15.6025C69.5685 13.1767 71.7111 11.5106 74.7535 11.5106C77.7645 11.5106 79.8287 13.1767 79.8981 15.6025H77.7454C77.6166 14.1995 76.4411 13.3525 74.7232 13.3525C73.0054 13.3525 71.8299 14.2095 71.8299 15.4565C71.8299 16.4506 72.5807 17.0354 74.4173 17.4831L75.9872 17.8635C78.9108 18.5456 80.1257 19.7044 80.1257 21.7607C80.1257 24.391 78.0021 26.0384 74.6246 26.0384C71.4644 26.0384 69.3309 24.4296 69.1931 21.8868L71.3761 21.8869ZM84.7279 13.1283V15.5539H86.7035V17.2201H84.7279V22.8709C84.7279 23.7487 85.1234 24.1578 85.992 24.1578C86.2265 24.1537 86.4606 24.1375 86.6934 24.1091V25.7654C86.303 25.8374 85.9061 25.8699 85.509 25.8626C83.4056 25.8626 82.5853 25.0832 82.5853 23.0953V17.2201H81.0747V15.5539H82.5853V13.1283H84.7279ZM87.8477 20.6796C87.8477 17.4544 89.7728 15.4279 92.775 15.4279C95.7872 15.4279 97.7034 17.4544 97.7034 20.6796C97.7034 23.9135 95.7971 25.9312 92.7749 25.9312C89.7538 25.9312 87.8477 23.9135 87.8477 20.6796ZM95.5305 20.6796C95.5305 18.4673 94.5029 17.1614 92.7749 17.1614C91.047 17.1614 90.0205 18.4771 90.0205 20.6796C90.0205 22.9008 91.047 24.1965 92.7749 24.1965C94.5029 24.1965 95.5305 22.9008 95.5305 20.6796ZM99.4614 15.5539H101.495V17.2985H101.545C101.682 16.7536 102.006 16.2721 102.461 15.9349C102.916 15.5976 103.475 15.4252 104.044 15.4467C104.289 15.4458 104.535 15.4721 104.774 15.5251V17.4932C104.464 17.3996 104.14 17.3567 103.816 17.366C103.506 17.3536 103.197 17.4075 102.911 17.524C102.624 17.6405 102.366 17.8168 102.155 18.0408C101.944 18.2649 101.785 18.5313 101.688 18.8219C101.591 19.1125 101.559 19.4203 101.594 19.7243V25.804H99.4614V15.5539ZM114.606 22.7934C114.319 24.6542 112.483 25.9312 110.133 25.9312C107.111 25.9312 105.235 23.9334 105.235 20.7282C105.235 17.5131 107.121 15.4279 110.043 15.4279C112.918 15.4279 114.725 17.376 114.725 20.4838V21.2047H107.387V21.3318C107.354 21.7091 107.401 22.0891 107.528 22.4467C107.654 22.8042 107.856 23.1312 108.121 23.4058C108.385 23.6804 108.706 23.8964 109.061 24.0394C109.416 24.1824 109.799 24.2491 110.182 24.2352C110.686 24.2818 111.192 24.1667 111.624 23.9069C112.056 23.6471 112.392 23.2566 112.581 22.7934H114.606ZM107.398 19.7342H112.591C112.611 19.3951 112.558 19.0556 112.438 18.7372C112.318 18.4189 112.133 18.1284 111.893 17.8841C111.654 17.6398 111.366 17.447 111.048 17.3177C110.73 17.1884 110.387 17.1254 110.043 17.1327C109.696 17.1306 109.352 17.1965 109.03 17.3264C108.709 17.4563 108.417 17.6477 108.171 17.8896C107.925 18.1315 107.73 18.419 107.597 18.7356C107.465 19.0522 107.397 19.3916 107.398 19.7342ZM32.4942 1.16268C32.9413 1.13102 33.3899 1.19765 33.8077 1.35778C34.2256 1.5179 34.6021 1.76753 34.9103 2.08864C35.2185 2.40976 35.4507 2.79436 35.59 3.21471C35.7293 3.63505 35.7723 4.08066 35.7159 4.51939C35.7159 6.6775 34.5336 7.91811 32.4942 7.91811H30.021V1.16256L32.4942 1.16268ZM31.0845 6.96268H32.3754C32.6949 6.98151 33.0146 6.92982 33.3112 6.81137C33.6079 6.69292 33.8741 6.5107 34.0903 6.27798C34.3066 6.04525 34.4676 5.76787 34.5615 5.46602C34.6555 5.16418 34.68 4.84547 34.6333 4.53309C34.6766 4.22194 34.6496 3.9052 34.5542 3.60557C34.4589 3.30594 34.2975 3.03082 34.0817 2.79994C33.8659 2.56906 33.601 2.38813 33.306 2.27012C33.0111 2.1521 32.6933 2.09992 32.3754 2.11731H31.0845V6.96268ZM36.9172 5.3668C36.8847 5.03178 36.9235 4.69376 37.0312 4.37441C37.1389 4.05506 37.313 3.76144 37.5425 3.51239C37.7719 3.26333 38.0515 3.06433 38.3635 2.92816C38.6754 2.79199 39.0128 2.72165 39.3539 2.72165C39.695 2.72165 40.0323 2.79199 40.3443 2.92816C40.6562 3.06433 40.9359 3.26333 41.1653 3.51239C41.3947 3.76144 41.5689 4.05506 41.6766 4.37441C41.7842 4.69376 41.8231 5.03178 41.7906 5.3668C41.8238 5.70222 41.7855 6.04078 41.6781 6.36071C41.5708 6.68065 41.3968 6.97488 41.1673 7.2245C40.9378 7.47411 40.6579 7.67358 40.3456 7.81009C40.0333 7.9466 39.6955 8.01712 39.3539 8.01712C39.0123 8.01712 38.6745 7.9466 38.3622 7.81009C38.0499 7.67358 37.77 7.47411 37.5405 7.2245C37.311 6.97488 37.137 6.68065 37.0297 6.36071C36.9223 6.04078 36.884 5.70222 36.9172 5.3668ZM40.7418 5.3668C40.7418 4.26171 40.2386 3.61548 39.3556 3.61548C38.4692 3.61548 37.9706 4.26171 37.9706 5.3668C37.9706 6.48073 38.4693 7.12198 39.3556 7.12198C40.2386 7.12198 40.7418 6.47631 40.7418 5.3668ZM48.2688 7.91799H47.2109L46.143 4.16333H46.0623L44.999 7.91799H43.9512L42.5269 2.81992H43.5612L44.4868 6.70999H44.563L45.6254 2.81992H46.6036L47.666 6.70999H47.7466L48.6677 2.81992H49.6875L48.2688 7.91799ZM50.8853 2.82003H51.867V3.62986H51.9432C52.0725 3.33897 52.2905 3.09511 52.5669 2.93229C52.8433 2.76947 53.1643 2.69579 53.4852 2.72153C53.7366 2.70289 53.9891 2.7403 54.2238 2.83098C54.4586 2.92166 54.6697 3.0633 54.8415 3.2454C55.0132 3.42749 55.1412 3.64539 55.2161 3.88293C55.2909 4.12048 55.3106 4.37159 55.2737 4.61766V7.91788H54.2539V4.87036C54.2539 4.05113 53.893 3.64367 53.1389 3.64367C52.9682 3.63584 52.7978 3.66451 52.6394 3.72772C52.481 3.79093 52.3383 3.88719 52.2211 4.00989C52.1039 4.1326 52.015 4.27885 51.9605 4.43862C51.9059 4.5984 51.8871 4.76792 51.9051 4.93557V7.91799H50.8853V2.82003ZM56.8985 0.829825H57.9182V7.91799H56.8985V0.829825ZM59.3358 5.3668C59.3033 5.03173 59.3421 4.69366 59.4498 4.37427C59.5575 4.05488 59.7317 3.76123 59.9612 3.51214C60.1906 3.26305 60.4703 3.06402 60.7823 2.92783C61.0943 2.79164 61.4317 2.72129 61.7728 2.72129C62.114 2.72129 62.4514 2.79164 62.7634 2.92783C63.0754 3.06402 63.3551 3.26305 63.5845 3.51214C63.814 3.76123 63.9881 4.05488 64.0958 4.37427C64.2035 4.69366 64.2424 5.03173 64.2099 5.3668C64.2429 5.70217 64.2044 6.04064 64.097 6.36047C63.9896 6.68031 63.8155 6.97443 63.586 7.22394C63.3565 7.47345 63.0766 7.67283 62.7643 7.80927C62.4521 7.94571 62.1143 8.01619 61.7728 8.01619C61.4313 8.01619 61.0936 7.94571 60.7813 7.80927C60.4691 7.67283 60.1892 7.47345 59.9597 7.22394C59.7302 6.97443 59.5561 6.68031 59.4487 6.36047C59.3412 6.04064 59.3028 5.70217 59.3358 5.3668ZM63.1604 5.3668C63.1604 4.26171 62.6572 3.61548 61.7742 3.61548C60.8878 3.61548 60.3892 4.26171 60.3892 5.3668C60.3892 6.48073 60.8879 7.12198 61.7742 7.12198C62.6572 7.12198 63.1604 6.47631 63.1604 5.3668ZM65.2833 6.47631C65.2833 5.55859 65.9759 5.02954 67.2052 4.95436L68.6048 4.87477V4.4347C68.6048 3.89625 68.244 3.59227 67.547 3.59227C66.9777 3.59227 66.5832 3.79844 66.4701 4.15891H65.4828C65.587 3.28319 66.4219 2.72165 67.594 2.72165C68.8894 2.72165 69.6201 3.35792 69.6201 4.4347V7.91799H68.6384V7.20157H68.5577C68.394 7.45855 68.164 7.66805 67.8913 7.80867C67.6187 7.9493 67.3131 8.01601 67.0057 8.002C66.7888 8.02426 66.5696 8.00142 66.3622 7.93496C66.1547 7.86851 65.9637 7.75991 65.8015 7.61617C65.6392 7.47242 65.5093 7.29673 65.42 7.1004C65.3308 6.90407 65.2842 6.69148 65.2833 6.47631ZM68.6048 6.04066V5.61441L67.343 5.694C66.6314 5.74098 66.3086 5.97986 66.3086 6.42921C66.3086 6.88808 66.7121 7.15515 67.2668 7.15515C67.4293 7.17139 67.5935 7.1552 67.7496 7.10754C67.9057 7.05989 68.0504 6.98175 68.1752 6.87776C68.3001 6.77378 68.4024 6.64609 68.4762 6.50228C68.55 6.35847 68.5937 6.20148 68.6048 6.04066ZM70.9603 5.3668C70.9603 3.75587 71.7996 2.73546 73.1051 2.73546C73.428 2.72077 73.7485 2.79708 74.0291 2.95546C74.3097 3.11384 74.5388 3.34776 74.6897 3.62986H74.7658V0.829712H75.7855V7.91788H74.8084V7.11235H74.7278C74.5653 7.39256 74.3282 7.62356 74.0422 7.78036C73.7562 7.93715 73.4322 8.01376 73.1052 8.00188C71.7906 8.00188 70.9603 6.98136 70.9603 5.36669V5.3668ZM72.0137 5.3668C72.0137 6.44801 72.5303 7.09877 73.3941 7.09877C74.2536 7.09877 74.7849 6.43872 74.7849 5.37111C74.7849 4.3087 74.2481 3.63926 73.3941 3.63926C72.5358 3.63926 72.0137 4.29432 72.0137 5.3668ZM80.0046 5.3668C79.9721 5.03178 80.0109 4.69376 80.1186 4.37441C80.2263 4.05506 80.4004 3.76144 80.6299 3.51239C80.8593 3.26333 81.1389 3.06433 81.4509 2.92816C81.7628 2.79199 82.1002 2.72165 82.4413 2.72165C82.7824 2.72165 83.1198 2.79199 83.4317 2.92816C83.7436 3.06433 84.0233 3.26333 84.2527 3.51239C84.4822 3.76144 84.6563 4.05506 84.764 4.37441C84.8716 4.69376 84.9105 5.03178 84.878 5.3668C84.9112 5.70222 84.8729 6.04078 84.7655 6.36071C84.6582 6.68065 84.4842 6.97488 84.2547 7.2245C84.0252 7.47411 83.7453 7.67358 83.433 7.81009C83.1207 7.9466 82.7829 8.01712 82.4413 8.01712C82.0997 8.01712 81.7619 7.9466 81.4496 7.81009C81.1373 7.67358 80.8574 7.47411 80.6279 7.2245C80.3984 6.97488 80.2244 6.68065 80.1171 6.36071C80.0097 6.04078 79.9714 5.70222 80.0046 5.3668ZM83.8292 5.3668C83.8292 4.26171 83.326 3.61548 82.443 3.61548C81.5566 3.61548 81.058 4.26171 81.058 5.3668C81.058 6.48073 81.5567 7.12198 82.443 7.12198C83.326 7.12198 83.8292 6.47631 83.8292 5.3668ZM86.2463 2.82003H87.2279V3.62986H87.3041C87.4334 3.33897 87.6514 3.09511 87.9278 2.93229C88.2042 2.76947 88.5252 2.69579 88.8461 2.72153C89.0975 2.70289 89.35 2.7403 89.5847 2.83098C89.8195 2.92166 90.0306 3.0633 90.2024 3.2454C90.3741 3.42749 90.5021 3.64539 90.577 3.88293C90.6518 4.12048 90.6715 4.37159 90.6346 4.61766V7.91788H89.6148V4.87036C89.6148 4.05113 89.2539 3.64367 88.4998 3.64367C88.3291 3.63584 88.1587 3.66451 88.0003 3.72772C87.8419 3.79093 87.6992 3.88719 87.582 4.00989C87.4648 4.1326 87.3759 4.27885 87.3214 4.43862C87.2668 4.5984 87.248 4.76792 87.266 4.93557V7.91799H86.2464L86.2463 2.82003ZM96.3967 1.55078V2.84324H97.5162V3.69066H96.3967V6.31204C96.3967 6.84607 96.6197 7.07997 97.1273 7.07997C97.2572 7.07953 97.3871 7.07174 97.5161 7.05665V7.89478C97.333 7.9271 97.1474 7.9443 96.9614 7.94618C95.8274 7.94618 95.3758 7.55253 95.3758 6.56971V3.69066H94.5556V2.84313H95.3758V1.55089L96.3967 1.55078ZM98.909 0.829825H99.9198V3.63926H100.001C100.136 3.34565 100.36 3.10043 100.642 2.93699C100.924 2.77355 101.25 2.69986 101.576 2.72595C101.826 2.71252 102.076 2.75372 102.308 2.84661C102.54 2.9395 102.749 3.08178 102.919 3.26332C103.089 3.44486 103.216 3.66117 103.292 3.89683C103.367 4.13248 103.389 4.38167 103.356 4.6266V7.91799H102.335V4.87477C102.335 4.06042 101.95 3.64809 101.23 3.64809C101.055 3.63392 100.878 3.65769 100.713 3.71776C100.548 3.77783 100.399 3.87274 100.275 3.99584C100.151 4.11895 100.056 4.26728 99.9959 4.43046C99.9361 4.59364 99.9132 4.76773 99.9288 4.94055V7.91799H98.909V0.829825ZM109.301 6.54141C109.163 7.00736 108.863 7.41041 108.453 7.68004C108.044 7.94968 107.552 8.06873 107.062 8.01638C106.722 8.02525 106.384 7.96092 106.071 7.82786C105.758 7.69481 105.479 7.49621 105.252 7.24585C105.025 6.99548 104.855 6.69936 104.756 6.37803C104.656 6.0567 104.629 5.71786 104.676 5.38503C104.63 5.05117 104.658 4.71159 104.757 4.38928C104.857 4.06697 105.025 3.76946 105.251 3.5169C105.477 3.26434 105.755 3.06262 106.067 2.92539C106.379 2.78817 106.717 2.71865 107.058 2.72153C108.496 2.72153 109.363 3.69066 109.363 5.29152V5.6426H105.714V5.69898C105.698 5.88606 105.722 6.07437 105.784 6.25183C105.847 6.42929 105.946 6.59199 106.075 6.7295C106.205 6.867 106.362 6.97628 106.537 7.05032C106.712 7.12436 106.9 7.16153 107.091 7.15945C107.334 7.18835 107.582 7.14502 107.8 7.03497C108.019 6.92491 108.2 6.75311 108.32 6.54141H109.301ZM105.714 4.89855H108.324C108.337 4.72745 108.314 4.55559 108.255 4.39401C108.197 4.23244 108.105 4.08472 107.985 3.96034C107.865 3.83597 107.72 3.73769 107.56 3.67183C107.399 3.60596 107.226 3.57397 107.052 3.57789C106.876 3.5757 106.701 3.60837 106.538 3.67397C106.374 3.73957 106.226 3.83678 106.101 3.95986C105.976 4.08294 105.878 4.2294 105.812 4.39062C105.745 4.55183 105.712 4.72454 105.714 4.89855Z" fill="white"/>
</svg>
