<svg width="69" height="13" viewBox="0 0 69 13" fill="none" xmlns="http://www.w3.org/2000/svg">
<path d="M4.914 10H3.052L0.28 0.199999H1.974L4.032 7.858L6.258 0.199999H7.742L9.954 7.858L12.012 0.199999H13.706L10.934 10H9.072L7 2.846L4.914 10ZM18.2769 2.818C19.0889 2.818 19.7376 3.07933 20.2229 3.602C20.7176 4.11533 20.9649 4.81533 20.9649 5.702V10H19.4529V5.856C19.4529 5.33333 19.3129 4.932 19.0329 4.652C18.7529 4.372 18.3702 4.232 17.8849 4.232C17.3342 4.232 16.9002 4.40467 16.5829 4.75C16.2656 5.086 16.1069 5.58533 16.1069 6.248V10H14.5949V0.199999H16.1069V3.896C16.5736 3.17733 17.2969 2.818 18.2769 2.818ZM28.1369 3.994V3H29.6489V10H28.1369V8.992C27.5676 9.78533 26.7509 10.182 25.6869 10.182C24.7256 10.182 23.9043 9.82733 23.2229 9.118C22.5416 8.40867 22.2009 7.536 22.2009 6.5C22.2009 5.464 22.5416 4.59133 23.2229 3.882C23.9043 3.17267 24.7256 2.818 25.6869 2.818C26.7509 2.818 27.5676 3.21 28.1369 3.994ZM24.3429 8.11C24.7629 8.53 25.2903 8.74 25.9249 8.74C26.5596 8.74 27.0869 8.53 27.5069 8.11C27.9269 7.68067 28.1369 7.144 28.1369 6.5C28.1369 5.856 27.9269 5.324 27.5069 4.904C27.0869 4.47467 26.5596 4.26 25.9249 4.26C25.2903 4.26 24.7629 4.47467 24.3429 4.904C23.9229 5.324 23.7129 5.856 23.7129 6.5C23.7129 7.13467 23.9229 7.67133 24.3429 8.11ZM35.3173 3V4.456H33.5813V7.816C33.5813 8.10533 33.6466 8.31533 33.7773 8.446C33.908 8.56733 34.0993 8.63733 34.3513 8.656C34.6126 8.66533 34.9346 8.66067 35.3173 8.642V10C34.16 10.14 33.3293 10.042 32.8253 9.706C32.3213 9.36067 32.0693 8.73067 32.0693 7.816V4.456H30.7813V3H32.0693V1.488L33.5813 1.04V3H35.3173ZM37.7869 4.932C37.7869 5.14667 37.8989 5.324 38.1229 5.464C38.3469 5.59467 38.6735 5.72067 39.1029 5.842C39.4295 5.91667 39.7142 5.996 39.9569 6.08C40.1995 6.164 40.4562 6.29 40.7269 6.458C40.9975 6.61667 41.2029 6.83133 41.3429 7.102C41.4922 7.36333 41.5622 7.67133 41.5529 8.026C41.5529 8.698 41.2915 9.22533 40.7689 9.608C40.2462 9.99067 39.5975 10.182 38.8229 10.182C38.1322 10.182 37.5395 10.0373 37.0449 9.748C36.5502 9.45867 36.1909 9.05733 35.9669 8.544L37.2689 7.788C37.5022 8.46 38.0202 8.796 38.8229 8.796C39.6162 8.796 40.0129 8.53467 40.0129 8.012C40.0129 7.62933 39.5695 7.33067 38.6829 7.116C38.3469 7.032 38.0622 6.948 37.8289 6.864C37.6049 6.78 37.3529 6.65867 37.0729 6.5C36.8022 6.34133 36.5922 6.13133 36.4429 5.87C36.3029 5.60867 36.2375 5.30533 36.2469 4.96C36.2469 4.316 36.4895 3.798 36.9749 3.406C37.4695 3.014 38.0809 2.818 38.8089 2.818C39.3875 2.818 39.9009 2.94867 40.3489 3.21C40.8062 3.462 41.1562 3.81667 41.3989 4.274L40.1249 4.988C39.8915 4.456 39.4529 4.19 38.8089 4.19C38.5102 4.19 38.2629 4.25533 38.0669 4.386C37.8802 4.51667 37.7869 4.69867 37.7869 4.932ZM51.1 10H49.364L48.678 8.026H44.506L43.82 10H42.07L45.626 0.199999H47.558L51.1 10ZM46.592 2.09L45.038 6.514H48.146L46.592 2.09ZM56.0178 2.818C56.9698 2.818 57.7912 3.17733 58.4818 3.896C59.1632 4.60533 59.5038 5.47333 59.5038 6.5C59.5038 7.536 59.1632 8.40867 58.4818 9.118C57.8005 9.82733 56.9792 10.182 56.0178 10.182C54.9632 10.182 54.1465 9.79 53.5678 9.006V12.8H52.0558V3H53.5678V4.008C54.1372 3.21467 54.9538 2.818 56.0178 2.818ZM54.1978 8.11C54.6178 8.53 55.1452 8.74 55.7798 8.74C56.4145 8.74 56.9418 8.53 57.3618 8.11C57.7818 7.68067 57.9918 7.144 57.9918 6.5C57.9918 5.856 57.7818 5.324 57.3618 4.904C56.9418 4.47467 56.4145 4.26 55.7798 4.26C55.1452 4.26 54.6178 4.47467 54.1978 4.904C53.7778 5.324 53.5678 5.856 53.5678 6.5C53.5678 7.13467 53.7778 7.67133 54.1978 8.11ZM64.8362 2.818C65.7882 2.818 66.6095 3.17733 67.3002 3.896C67.9815 4.60533 68.3222 5.47333 68.3222 6.5C68.3222 7.536 67.9815 8.40867 67.3002 9.118C66.6189 9.82733 65.7975 10.182 64.8362 10.182C63.7815 10.182 62.9649 9.79 62.3862 9.006V12.8H60.8742V3H62.3862V4.008C62.9555 3.21467 63.7722 2.818 64.8362 2.818ZM63.0162 8.11C63.4362 8.53 63.9635 8.74 64.5982 8.74C65.2329 8.74 65.7602 8.53 66.1802 8.11C66.6002 7.68067 66.8102 7.144 66.8102 6.5C66.8102 5.856 66.6002 5.324 66.1802 4.904C65.7602 4.47467 65.2329 4.26 64.5982 4.26C63.9635 4.26 63.4362 4.47467 63.0162 4.904C62.5962 5.324 62.3862 5.856 62.3862 6.5C62.3862 7.13467 62.5962 7.67133 63.0162 8.11Z" fill="#2CB742"/>
</svg>
