<svg width="402" height="180" viewBox="0 0 402 180" fill="none" xmlns="http://www.w3.org/2000/svg">
<g clip-path="url(#clip0_1_734)">
<rect width="402" height="180" rx="9" fill="#F0F9FF"/>
<rect y="0.000854492" width="401.69" height="181.48" rx="11.0658" fill="#F0F9FF"/>
<ellipse cx="39.8343" cy="152.712" rx="55.3292" ry="55.3292" fill="#D7EEFE"/>
<path d="M371.547 144.715C371.547 144.715 378.092 131.024 377.849 108.671C377.607 86.3175 365.971 65.3613 351.669 59.4936C337.367 53.6259 324.761 61.1701 307.792 62.0083C290.824 62.8466 280.885 38.258 256.643 49.9935C232.402 61.7289 232.402 85.4792 236.523 96.9352C240.644 108.391 248.401 113.98 239.917 122.083C231.433 130.186 223.191 135.215 220.767 138.289C219.334 140.07 218.404 142.311 218.1 144.715H371.547Z" fill="#0B71BB"/>
<path opacity="0.7" d="M371.547 144.715C371.547 144.715 378.092 131.024 377.849 108.671C377.607 86.3175 365.971 65.3613 351.669 59.4936C337.367 53.6259 324.761 61.1701 307.792 62.0083C290.824 62.8466 280.885 38.258 256.643 49.9935C232.402 61.7289 232.402 85.4792 236.523 96.9352C240.644 108.391 248.401 113.98 239.917 122.083C231.433 130.186 223.191 135.215 220.767 138.289C219.334 140.07 218.404 142.311 218.1 144.715H371.547Z" fill="white"/>
<g opacity="0.2">
<path d="M264.886 46.1142C263.713 46.1153 262.566 46.5173 261.591 47.2693C260.616 48.0214 259.856 49.0897 259.407 50.3393C258.959 51.589 258.842 52.9638 259.071 54.2901C259.3 55.6165 259.865 56.8347 260.695 57.791C261.524 58.7473 262.581 59.3986 263.732 59.6627C264.883 59.9268 266.075 59.7918 267.159 59.2748C268.244 58.7578 269.17 57.882 269.823 56.758C270.475 55.634 270.824 54.3123 270.825 52.9599C270.825 51.1443 270.199 49.4031 269.085 48.1193C267.972 46.8355 266.461 46.1142 264.886 46.1142ZM265.49 57.1316V57.791H264.484V57.1316C263.599 56.9276 263.153 56.1397 263.153 54.9158V54.2983H264.316V55.0052C264.316 55.6507 264.559 55.8826 264.954 55.8826C265.349 55.8826 265.591 55.6507 265.591 55.0052C265.591 53.1499 263.187 53.0493 263.187 50.4815C263.187 49.2688 263.623 48.4977 264.484 48.2769V47.6063H265.49V48.2769C266.362 48.4837 266.808 49.2577 266.808 50.4815V50.7609H265.647V50.3921C265.647 49.7466 265.422 49.5008 265.031 49.5008C264.641 49.5008 264.416 49.7466 264.416 50.3921C264.416 52.2474 266.82 52.348 266.82 54.9158C266.825 56.1397 266.367 56.9276 265.494 57.1316H265.49Z" stroke="black" stroke-width="1.10658" stroke-linecap="round" stroke-linejoin="round"/>
<path d="M264.885 43.3647C263.24 43.3642 261.632 43.926 260.264 44.9792C258.896 46.0324 257.829 47.5297 257.199 49.2815C256.569 51.0334 256.405 52.9612 256.725 54.8211C257.046 56.681 257.838 58.3895 259.002 59.7304C260.165 61.0713 261.647 61.9844 263.261 62.3542C264.874 62.724 266.547 62.5339 268.067 61.808C269.587 61.082 270.886 59.8528 271.799 58.2759C272.713 56.6989 273.2 54.845 273.2 52.9487C273.2 50.4069 272.324 47.9692 270.765 46.1718C269.205 44.3745 267.09 43.3647 264.885 43.3647ZM264.885 60.8226C263.534 60.8215 262.214 60.3586 261.091 59.4923C259.968 58.6261 259.093 57.3955 258.577 55.9561C258.061 54.5168 257.927 52.9333 258.191 51.4061C258.456 49.8788 259.108 48.4764 260.064 47.3761C261.02 46.2758 262.238 45.5271 263.564 45.2246C264.889 44.9222 266.263 45.0797 267.51 45.6771C268.758 46.2745 269.824 47.285 270.574 48.5809C271.323 49.8767 271.723 51.3997 271.721 52.9571C271.717 55.0442 270.996 57.0444 269.714 58.5189C268.433 59.9934 266.696 60.8219 264.885 60.8226Z" stroke="black" stroke-width="1.10658" stroke-linecap="round" stroke-linejoin="round"/>
</g>
<g opacity="0.2">
<path d="M314.314 47.3492C313.455 47.3492 312.616 47.6427 311.902 48.1926C311.188 48.7425 310.631 49.5241 310.303 50.4385C309.974 51.3529 309.888 52.3591 310.055 53.3299C310.223 54.3006 310.636 55.1923 311.244 55.8922C311.851 56.592 312.624 57.0687 313.467 57.2618C314.309 57.4548 315.182 57.3557 315.975 56.977C316.768 56.5982 317.446 55.9568 317.924 55.1338C318.401 54.3109 318.655 53.3433 318.655 52.3536C318.654 51.0268 318.196 49.7548 317.382 48.8166C316.568 47.8784 315.465 47.3507 314.314 47.3492ZM314.755 55.4132V55.8938H314.028V55.4132C313.38 55.2623 313.058 54.6867 313.058 53.7898V53.3371H313.909V53.8568C313.909 54.329 314.091 54.4967 314.377 54.4967C314.663 54.4967 314.842 54.329 314.842 53.8568C314.842 52.4989 313.082 52.4318 313.082 50.5458C313.082 49.66 313.402 49.0928 314.032 48.9335V48.4418H314.76V48.9335C315.397 49.0844 315.729 49.6488 315.729 50.5458V50.7525H314.878V50.4731C314.878 50.0037 314.716 49.8221 314.428 49.8221C314.139 49.8221 313.979 50.0037 313.979 50.4731C313.979 51.8311 315.739 51.8981 315.739 53.7842C315.729 54.6867 315.392 55.2623 314.755 55.4132Z" stroke="black" stroke-width="1.10658" stroke-linecap="round" stroke-linejoin="round"/>
<path d="M314.314 45.3398C313.11 45.3398 311.934 45.7511 310.933 46.5218C309.933 47.2924 309.153 48.3877 308.692 49.6693C308.232 50.9508 308.111 52.3609 308.346 53.7214C308.581 55.0818 309.16 56.3315 310.011 57.3123C310.862 58.2931 311.946 58.9611 313.127 59.2317C314.307 59.5023 315.53 59.3634 316.642 58.8326C317.754 58.3018 318.704 57.4029 319.373 56.2495C320.041 55.0962 320.398 53.7402 320.398 52.3531C320.398 50.4931 319.757 48.7092 318.616 47.394C317.475 46.0787 315.927 45.3398 314.314 45.3398ZM314.314 58.1147C313.325 58.1147 312.359 57.7768 311.537 57.1437C310.715 56.5106 310.074 55.6108 309.696 54.558C309.317 53.5052 309.218 52.3468 309.411 51.2291C309.604 50.1115 310.08 49.0849 310.779 48.2791C311.478 47.4733 312.369 46.9246 313.338 46.7023C314.308 46.48 315.313 46.5941 316.226 47.0302C317.14 47.4662 317.92 48.2047 318.47 49.1522C319.019 50.0997 319.312 51.2136 319.312 52.3531C319.311 53.8807 318.784 55.3454 317.847 56.4255C316.909 57.5057 315.639 58.1132 314.314 58.1147Z" stroke="black" stroke-width="1.10658" stroke-linecap="round" stroke-linejoin="round"/>
</g>
<g opacity="0.2">
<path d="M223.644 91.7182C222.785 91.7182 221.946 92.0117 221.232 92.5616C220.518 93.1115 219.961 93.8931 219.633 94.8075C219.304 95.7219 219.218 96.7281 219.385 97.6989C219.553 98.6696 219.966 99.5613 220.574 100.261C221.181 100.961 221.954 101.438 222.797 101.631C223.639 101.824 224.512 101.725 225.305 101.346C226.098 100.967 226.776 100.326 227.254 99.5028C227.731 98.6799 227.985 97.7123 227.985 96.7226C227.984 95.3958 227.526 94.1238 226.712 93.1856C225.898 92.2474 224.795 91.7197 223.644 91.7182ZM224.085 99.7822V100.263H223.358V99.7822C222.71 99.6313 222.388 99.0557 222.388 98.1588V97.7061H223.239V98.2258C223.239 98.698 223.418 98.8685 223.707 98.8685C223.995 98.8685 224.158 98.698 224.158 98.2258C224.158 96.8679 222.398 96.8008 222.398 94.9147C222.398 94.029 222.718 93.4618 223.348 93.3025V92.8107H224.075V93.3025C224.713 93.4534 225.045 94.0178 225.045 94.9147V95.1215H224.199V94.8421C224.199 94.3727 224.034 94.1938 223.748 94.1938C223.462 94.1938 223.299 94.3727 223.299 94.8421C223.299 96.2028 225.057 96.2671 225.057 98.1532C225.057 99.0641 224.722 99.6229 224.085 99.7822Z" stroke="black" stroke-width="1.10658" stroke-linecap="round" stroke-linejoin="round"/>
<path d="M223.645 89.7059C222.442 89.707 221.266 90.1192 220.266 90.8905C219.266 91.6618 218.487 92.7576 218.027 94.0392C217.567 95.3208 217.447 96.7308 217.683 98.0909C217.918 99.4509 218.498 100.7 219.349 101.68C220.2 102.661 221.284 103.328 222.464 103.598C223.644 103.868 224.868 103.729 225.979 103.198C227.091 102.667 228.041 101.768 228.709 100.615C229.377 99.4618 229.734 98.1061 229.734 96.7192C229.734 95.7978 229.576 94.8855 229.27 94.0345C228.964 93.1834 228.515 92.4101 227.95 91.7589C227.384 91.1076 226.713 90.5911 225.974 90.2389C225.236 89.8866 224.444 89.7055 223.645 89.7059ZM223.645 102.481C222.656 102.481 221.69 102.143 220.868 101.51C220.046 100.877 219.405 99.9768 219.027 98.924C218.648 97.8713 218.549 96.7128 218.742 95.5952C218.935 94.4775 219.411 93.4509 220.11 92.6452C220.809 91.8394 221.7 91.2907 222.67 91.0684C223.639 90.846 224.644 90.9601 225.558 91.3962C226.471 91.8323 227.252 92.5708 227.801 93.5182C228.35 94.4657 228.643 95.5797 228.643 96.7192C228.642 98.2468 228.115 99.7114 227.178 100.792C226.241 101.872 224.97 102.479 223.645 102.481Z" stroke="black" stroke-width="1.10658" stroke-linecap="round" stroke-linejoin="round"/>
</g>
<g opacity="0.2">
<path d="M371.408 86.1521C370.55 86.1521 369.71 86.4456 368.996 86.9955C368.282 87.5454 367.726 88.3269 367.397 89.2414C367.069 90.1558 366.983 91.162 367.15 92.1327C367.318 93.1035 367.731 93.9952 368.338 94.695C368.946 95.3949 369.719 95.8715 370.561 96.0646C371.403 96.2577 372.276 96.1586 373.07 95.7798C373.863 95.4011 374.541 94.7597 375.018 93.9367C375.495 93.1137 375.75 92.1462 375.75 91.1564C375.749 89.8297 375.291 88.5577 374.477 87.6195C373.663 86.6813 372.559 86.1536 371.408 86.1521ZM371.849 94.216V94.6966H371.122V94.216C370.477 94.0652 370.153 93.4896 370.153 92.5926V92.14H371.003V92.6597C371.003 93.1291 371.183 93.2996 371.469 93.2996C371.755 93.2996 371.934 93.1291 371.934 92.6597C371.934 91.2989 370.177 91.2347 370.177 89.3486C370.177 88.4601 370.494 87.8957 371.125 87.7336V87.2446H371.852V87.7336C372.489 87.8845 372.822 88.4517 372.822 89.3486V89.561H371.971V89.2816C371.971 88.8094 371.808 88.6305 371.522 88.6305C371.236 88.6305 371.064 88.8094 371.064 89.2816C371.064 90.6395 372.824 90.7066 372.824 92.5926C372.824 93.4896 372.487 94.0652 371.849 94.216Z" stroke="black" stroke-width="1.10658" stroke-linecap="round" stroke-linejoin="round"/>
<path d="M371.408 84.1427C370.205 84.1427 369.028 84.554 368.028 85.3247C367.027 86.0953 366.247 87.1906 365.787 88.4721C365.326 89.7537 365.206 91.1638 365.441 92.5243C365.675 93.8847 366.255 95.1344 367.106 96.1152C367.957 97.096 369.041 97.764 370.221 98.0346C371.401 98.3052 372.625 98.1663 373.737 97.6355C374.848 97.1047 375.799 96.2058 376.467 95.0524C377.136 93.8991 377.493 92.5431 377.493 91.156C377.493 90.235 377.335 89.323 377.03 88.4721C376.724 87.6212 376.276 86.8481 375.711 86.1969C375.146 85.5456 374.475 85.029 373.737 84.6766C372.998 84.3241 372.207 84.1427 371.408 84.1427ZM371.408 96.9176C370.419 96.9198 369.452 96.5838 368.628 95.952C367.805 95.3203 367.163 94.4212 366.783 93.3686C366.403 92.316 366.303 91.1572 366.495 90.0389C366.687 88.9205 367.162 87.8929 367.861 87.086C368.559 86.2791 369.45 85.7292 370.42 85.506C371.39 85.2828 372.395 85.3962 373.309 85.832C374.223 86.2677 375.004 87.0062 375.554 87.9539C376.104 88.9017 376.397 90.016 376.397 91.156C376.396 92.6817 375.87 94.1446 374.935 95.2245C374 96.3043 372.732 96.9131 371.408 96.9176Z" stroke="black" stroke-width="1.10658" stroke-linecap="round" stroke-linejoin="round"/>
</g>
<path d="M213.735 144.857H375.181" stroke="#263238" stroke-width="1.10658" stroke-linecap="round" stroke-linejoin="round"/>
<path d="M223.351 120.296C224.079 120.657 225.822 120.609 225.824 120.609C225.826 120.609 225.446 119.288 225.412 119.212C225.029 118.284 223.812 116.753 222.821 116.907C222.657 116.938 222.501 117.009 222.362 117.114C222.224 117.219 222.106 117.356 222.017 117.517C221.927 117.678 221.868 117.859 221.844 118.048C221.819 118.237 221.829 118.43 221.873 118.614C222.038 119.385 222.741 119.972 223.351 120.296Z" fill="#0B71BB"/>
<path d="M223.96 126.133C224.702 126.255 226.268 125.733 226.384 125.691C226.642 126.723 226.959 127.734 227.334 128.717C227.548 129.293 227.78 129.863 228.02 130.433C227.877 130.192 227.749 129.977 227.727 129.949C227.143 129.173 225.621 128.063 224.699 128.516C224.549 128.595 224.414 128.711 224.304 128.854C224.195 128.997 224.113 129.166 224.063 129.348C224.014 129.53 223.998 129.723 224.018 129.913C224.037 130.102 224.091 130.285 224.176 130.449C224.515 131.162 225.33 131.514 225.989 131.626C226.648 131.738 227.999 131.324 228.353 131.207L228.634 131.861C229.087 132.9 229.543 133.934 229.962 134.968C230.11 135.331 230.246 135.694 230.382 136.057C230.253 135.845 230.139 135.666 230.139 135.641C229.555 134.861 228.03 133.755 227.111 134.205C226.96 134.284 226.825 134.399 226.714 134.542C226.604 134.685 226.521 134.854 226.471 135.036C226.421 135.219 226.405 135.412 226.424 135.602C226.442 135.793 226.496 135.976 226.581 136.141C226.92 136.854 227.732 137.206 228.391 137.318C229.051 137.429 230.272 137.052 230.694 136.918C230.823 137.295 230.951 137.675 231.063 138.036C231.133 138.293 231.215 138.533 231.274 138.796C231.332 139.058 231.4 139.307 231.46 139.561C231.562 140.053 231.671 140.559 231.761 141.042C231.824 141.377 231.88 141.699 231.938 142.02C231.795 141.657 231.499 140.953 231.468 140.902C230.983 140.031 229.632 138.667 228.665 138.947C228.506 138.999 228.357 139.089 228.23 139.212C228.103 139.335 227.999 139.487 227.926 139.659C227.853 139.831 227.813 140.018 227.807 140.209C227.801 140.4 227.83 140.591 227.892 140.768C228.134 141.531 228.893 142.023 229.528 142.246C230.231 142.495 231.783 142.269 231.977 142.246C232.071 142.783 232.156 143.303 232.219 143.797C232.275 144.163 232.326 144.512 232.372 144.851H232.995C232.937 144.473 232.871 144.082 232.801 143.671C232.709 143.127 232.6 142.554 232.483 141.956C232.951 141.74 233.408 141.493 233.85 141.215C234.362 141.855 235.671 142.612 235.841 142.696C235.664 143.202 235.484 143.691 235.31 144.149C235.22 144.392 235.13 144.621 235.041 144.851H235.7L235.855 144.415C236.039 143.903 236.226 143.35 236.413 142.783C236.599 142.828 238.139 143.188 238.854 143.001C239.503 142.833 240.291 142.408 240.582 141.668C240.655 141.496 240.696 141.309 240.703 141.118C240.709 140.927 240.681 140.737 240.619 140.559C240.558 140.382 240.465 140.221 240.346 140.088C240.227 139.954 240.086 139.851 239.93 139.785C238.982 139.419 237.538 140.657 237.021 141.484C236.99 141.534 236.701 142.107 236.524 142.473C236.599 142.238 236.675 142.015 236.75 141.774C236.902 141.299 237.041 140.819 237.191 140.304C237.256 140.053 237.322 139.799 237.39 139.544C237.458 139.29 237.506 139.014 237.567 138.745C237.695 138.122 237.809 137.482 237.891 136.837C238.253 136.988 239.542 137.505 240.209 137.452C240.876 137.399 241.707 137.116 242.092 136.435C242.188 136.278 242.254 136.1 242.285 135.912C242.317 135.724 242.314 135.531 242.277 135.344C242.239 135.158 242.168 134.983 242.068 134.83C241.967 134.678 241.84 134.551 241.695 134.459C240.808 133.931 239.215 134.906 238.585 135.63C238.544 135.675 238.141 136.256 237.925 136.577C237.979 136.189 238.032 135.8 238.076 135.406C238.199 134.264 238.291 133.104 238.391 131.947C238.42 131.592 238.454 131.24 238.485 130.888C238.614 130.941 240.134 131.595 240.883 131.534C241.547 131.481 242.381 131.198 242.764 130.517C242.859 130.36 242.925 130.182 242.957 129.995C242.989 129.807 242.986 129.614 242.948 129.428C242.911 129.241 242.839 129.066 242.739 128.914C242.639 128.762 242.512 128.636 242.366 128.544C241.479 128.016 239.889 128.988 239.256 129.712C239.208 129.768 238.628 130.603 238.49 130.83C238.563 130.053 238.64 129.279 238.733 128.519C238.867 127.492 239.06 126.476 239.31 125.479C239.368 125.504 240.953 126.194 241.719 126.133C242.383 126.077 243.217 125.797 243.603 125.115C243.698 124.959 243.763 124.781 243.795 124.593C243.826 124.405 243.823 124.212 243.786 124.026C243.748 123.839 243.677 123.664 243.577 123.512C243.477 123.359 243.35 123.232 243.205 123.14C242.315 122.612 240.725 123.584 240.093 124.311C240.044 124.367 239.421 125.266 239.319 125.428C239.334 125.37 239.343 125.308 239.358 125.252C239.631 124.259 239.981 123.296 240.403 122.374C240.631 121.863 240.873 121.388 241.13 120.93C241.414 121.095 242.715 121.824 243.411 121.855C244.107 121.885 244.931 121.712 245.38 121.083C245.489 120.94 245.571 120.771 245.621 120.589C245.67 120.406 245.686 120.213 245.666 120.023C245.647 119.833 245.593 119.65 245.508 119.486C245.423 119.321 245.309 119.179 245.173 119.069C244.34 118.432 242.667 119.197 241.969 119.84C241.93 119.874 241.579 120.279 241.326 120.575C241.44 120.371 241.552 120.159 241.663 119.966C242.083 119.242 242.505 118.605 242.875 118.049C243.094 117.733 243.295 117.451 243.484 117.191C243.835 117.191 245.249 117.135 245.867 116.8C246.485 116.465 247.159 115.867 247.307 115.07C247.346 114.885 247.352 114.692 247.322 114.503C247.293 114.315 247.229 114.136 247.136 113.978C247.043 113.82 246.922 113.686 246.781 113.586C246.64 113.485 246.482 113.42 246.318 113.394C245.324 113.268 244.136 114.839 243.782 115.777C243.751 115.858 243.384 117.194 243.404 117.194H243.426C243.237 117.443 243.038 117.708 242.825 118.004C242.437 118.563 242.003 119.181 241.569 119.896C241.096 120.664 240.661 121.463 240.267 122.288C239.822 123.211 239.45 124.178 239.154 125.177C239.155 125.189 239.155 125.201 239.154 125.213C239.154 124.875 239.154 123.931 239.14 123.858C239.023 122.841 238.284 120.947 237.3 120.737C237.136 120.707 236.968 120.718 236.808 120.768C236.648 120.818 236.499 120.906 236.37 121.027C236.242 121.148 236.137 121.299 236.062 121.47C235.988 121.641 235.945 121.828 235.938 122.02C235.879 122.83 236.388 123.64 236.885 124.151C237.445 124.73 239.002 125.289 239.125 125.331C238.847 126.356 238.628 127.401 238.468 128.46C238.374 129.075 238.294 129.701 238.226 130.327C238.226 130.033 238.226 129.768 238.214 129.737C238.097 128.717 237.356 126.825 236.374 126.616C236.21 126.586 236.042 126.597 235.882 126.647C235.722 126.697 235.573 126.785 235.444 126.906C235.316 127.027 235.211 127.178 235.136 127.349C235.062 127.52 235.019 127.707 235.012 127.898C234.953 128.706 235.462 129.519 235.959 130.03C236.456 130.542 237.782 131.056 238.141 131.184C238.117 131.425 238.088 131.665 238.064 131.905C237.942 133.062 237.821 134.216 237.685 135.342C237.634 135.742 237.574 136.13 237.511 136.518C237.511 136.261 237.511 136.041 237.511 136.01C237.397 134.99 236.655 133.096 235.673 132.886C235.509 132.857 235.342 132.868 235.182 132.918C235.022 132.968 234.873 133.057 234.744 133.177C234.616 133.298 234.511 133.449 234.436 133.62C234.362 133.791 234.319 133.978 234.311 134.169C234.253 134.979 234.762 135.789 235.259 136.3C235.756 136.812 236.956 137.278 237.368 137.432C237.295 137.829 237.222 138.228 237.125 138.608C237.06 138.865 237.014 139.12 236.939 139.377C236.864 139.634 236.796 139.883 236.725 140.134C236.575 140.609 236.425 141.101 236.267 141.559C236.161 141.88 236.054 142.185 235.947 142.49C236.001 142.096 236.093 141.319 236.095 141.252C236.082 140.348 235.87 139.462 235.479 138.678C235.482 138.577 235.477 138.476 235.462 138.377C235.442 138.186 235.387 138.002 235.3 137.838C235.213 137.673 235.098 137.532 234.96 137.423C234.823 137.314 234.667 137.24 234.503 137.205C234.339 137.17 234.17 137.176 234.008 137.223C233.038 137.519 232.43 139.458 232.384 140.497C232.384 140.559 232.415 141.218 232.442 141.637C232.394 141.394 232.35 141.159 232.297 140.911C232.195 140.419 232.083 139.93 231.962 139.405C231.897 139.153 231.829 138.899 231.761 138.645C231.693 138.39 231.606 138.128 231.518 137.865C231.327 137.264 231.109 136.664 230.876 136.066C231.252 135.962 232.573 135.574 233.104 135.105C233.635 134.635 234.192 133.872 234.187 133.059C234.192 132.868 234.162 132.678 234.099 132.501C234.036 132.324 233.941 132.164 233.821 132.032C233.7 131.9 233.557 131.799 233.401 131.736C233.244 131.672 233.078 131.647 232.912 131.662C231.918 131.788 231.055 133.618 230.876 134.618C230.876 134.68 230.806 135.42 230.782 135.825C230.638 135.468 230.498 135.11 230.345 134.752C229.902 133.721 229.424 132.696 228.951 131.679C228.808 131.366 228.665 131.05 228.525 130.734C228.658 130.701 230.239 130.276 230.832 129.751C231.361 129.284 231.921 128.519 231.916 127.706C231.921 127.514 231.891 127.324 231.828 127.147C231.765 126.97 231.67 126.81 231.549 126.679C231.429 126.547 231.286 126.446 231.129 126.382C230.973 126.318 230.806 126.293 230.641 126.309C229.647 126.432 228.784 128.264 228.605 129.262C228.59 129.34 228.508 130.402 228.498 130.676C228.185 129.98 227.88 129.279 227.601 128.586C227.224 127.644 226.9 126.675 226.631 125.685C226.694 125.669 228.345 125.236 228.954 124.696C229.482 124.23 230.042 123.464 230.037 122.651C230.042 122.459 230.012 122.269 229.949 122.092C229.886 121.915 229.79 121.755 229.67 121.623C229.549 121.491 229.406 121.39 229.249 121.326C229.092 121.263 228.925 121.238 228.76 121.254C227.768 121.377 226.905 123.21 226.726 124.207C226.711 124.288 226.622 125.431 226.619 125.641C226.605 125.585 226.583 125.526 226.568 125.468C226.32 124.462 226.151 123.434 226.062 122.394C226.006 121.821 225.982 121.276 225.967 120.734C226.282 120.69 227.717 120.472 228.311 120.055C228.905 119.639 229.511 118.968 229.584 118.161C229.607 117.971 229.596 117.778 229.55 117.595C229.504 117.411 229.425 117.24 229.318 117.094C229.21 116.948 229.078 116.829 228.928 116.746C228.779 116.664 228.615 116.618 228.45 116.613C227.451 116.613 226.421 118.312 226.144 119.29C226.13 119.346 226.03 119.904 225.962 120.312C225.962 120.072 225.95 119.821 225.962 119.589C225.962 118.72 226.011 117.912 226.057 117.216C226.088 116.814 226.12 116.454 226.156 116.115C226.445 115.886 227.611 114.945 227.955 114.274C228.299 113.604 228.585 112.673 228.326 111.916C228.271 111.736 228.183 111.571 228.068 111.432C227.954 111.293 227.816 111.184 227.662 111.111C227.509 111.039 227.343 111.004 227.178 111.01C227.012 111.015 226.849 111.061 226.699 111.145C225.812 111.673 225.579 113.732 225.73 114.746C225.744 114.836 226.079 116.18 226.093 116.169H226.11C226.071 116.493 226.033 116.842 225.999 117.222C225.938 117.929 225.875 118.728 225.856 119.6C225.828 120.542 225.847 121.485 225.914 122.425C225.985 123.477 226.137 124.519 226.37 125.54V125.576C226.212 125.297 225.749 124.512 225.708 124.459C225.124 123.679 223.601 122.573 222.68 123.023C222.529 123.102 222.395 123.218 222.285 123.361C222.175 123.505 222.093 123.674 222.044 123.856C221.995 124.039 221.979 124.231 221.998 124.421C222.018 124.611 222.072 124.795 222.157 124.959C222.486 125.669 223.301 126.021 223.96 126.133Z" fill="#0B71BB"/>
<path d="M241.085 120.723C241.1 120.723 241.403 119.379 241.415 119.289C241.539 118.272 241.255 116.216 240.356 115.721C240.204 115.643 240.04 115.602 239.874 115.602C239.709 115.601 239.544 115.641 239.393 115.718C239.241 115.796 239.105 115.909 238.994 116.051C238.883 116.193 238.8 116.361 238.748 116.543C238.506 117.306 238.811 118.242 239.175 118.887C239.599 119.644 241.083 120.72 241.085 120.723Z" fill="#0B71BB"/>
<path d="M344.63 111.88C345.6 112.363 347.944 112.302 347.946 112.302C347.949 112.302 347.439 110.528 347.396 110.421C346.879 109.175 345.248 107.122 343.92 107.328C343.7 107.369 343.49 107.463 343.303 107.604C343.117 107.745 342.959 107.93 342.839 108.146C342.719 108.362 342.639 108.605 342.606 108.859C342.573 109.113 342.587 109.372 342.647 109.62C342.868 110.679 343.811 111.466 344.63 111.88Z" fill="#0B71BB"/>
<path d="M345.445 119.737C346.441 119.904 348.541 119.203 348.708 119.144C349.054 120.53 349.48 121.887 349.983 123.207C350.271 123.978 350.582 124.744 350.904 125.506C350.713 125.182 350.538 124.895 350.511 124.858C349.726 123.816 347.682 122.329 346.449 122.933C346.246 123.04 346.066 123.195 345.918 123.388C345.771 123.58 345.661 123.807 345.595 124.052C345.528 124.297 345.508 124.555 345.534 124.81C345.56 125.065 345.632 125.311 345.746 125.532C346.201 126.487 347.292 126.959 348.17 127.107C349.047 127.256 350.868 126.702 351.343 126.549C351.469 126.842 351.585 127.133 351.719 127.423C352.325 128.82 352.931 130.217 353.5 131.592C353.702 132.081 353.881 132.57 354.063 133.056C353.893 132.777 353.748 132.531 353.721 132.497C352.938 131.452 350.894 129.969 349.661 130.572C349.458 130.679 349.277 130.833 349.13 131.026C348.982 131.218 348.872 131.444 348.806 131.689C348.739 131.934 348.719 132.192 348.745 132.447C348.771 132.702 348.843 132.948 348.958 133.168C349.413 134.124 350.504 134.596 351.382 134.747C352.259 134.898 353.903 134.392 354.468 134.213C354.642 134.719 354.817 135.225 354.952 135.725C355.047 136.068 355.158 136.392 355.236 136.745C355.314 137.097 355.403 137.432 355.478 137.773C355.614 138.432 355.76 139.111 355.881 139.759C355.966 140.209 356.041 140.64 356.123 141.073C355.929 140.584 355.534 139.639 355.493 139.564C354.858 138.396 353.03 136.571 351.733 136.951C351.519 137.022 351.32 137.143 351.149 137.308C350.978 137.472 350.84 137.677 350.742 137.907C350.644 138.138 350.589 138.39 350.581 138.646C350.573 138.903 350.612 139.158 350.696 139.396C351.02 140.422 352.036 141.073 352.892 141.38C353.832 141.713 355.917 141.408 356.177 141.38C356.303 142.098 356.419 142.797 356.518 143.459C356.591 143.948 356.661 144.42 356.724 144.873H357.558C357.478 144.37 357.393 143.842 357.299 143.291C357.173 142.562 357.027 141.785 356.872 140.989C357.5 140.7 358.112 140.369 358.705 139.997C359.391 140.852 361.148 141.855 361.371 141.981C361.129 142.66 360.887 143.316 360.661 143.937C360.538 144.264 360.419 144.571 360.298 144.878H361.182C361.25 144.686 361.321 144.496 361.391 144.294C361.633 143.607 361.888 142.867 362.137 142.104C362.38 142.165 364.452 142.649 365.415 142.383C366.288 142.157 367.354 141.587 367.732 140.595C367.83 140.366 367.884 140.115 367.893 139.86C367.901 139.605 367.862 139.35 367.78 139.113C367.697 138.876 367.573 138.662 367.414 138.484C367.255 138.306 367.065 138.168 366.857 138.08C365.587 137.586 363.648 139.251 362.937 140.36C362.896 140.424 362.511 141.198 362.273 141.685C362.375 141.372 362.474 141.07 362.576 140.749C362.78 140.112 362.964 139.469 363.168 138.776L363.432 137.756C363.526 137.415 363.589 137.044 363.674 136.686C363.846 135.848 363.987 134.993 364.111 134.124C364.595 134.328 366.324 135.021 367.218 134.948C368.113 134.875 369.23 134.498 369.747 133.584C369.874 133.374 369.962 133.136 370.005 132.884C370.047 132.632 370.043 132.373 369.993 132.123C369.942 131.873 369.847 131.638 369.713 131.434C369.578 131.229 369.408 131.059 369.213 130.935C368.021 130.226 365.888 131.531 365.039 132.506C364.986 132.564 364.445 133.344 364.154 133.777C364.227 133.255 364.3 132.735 364.356 132.204C364.52 130.67 364.646 129.116 364.777 127.563C364.819 127.088 364.862 126.616 364.906 126.141C365.078 126.216 367.117 127.091 368.12 127.01C369.012 126.937 370.132 126.56 370.649 125.646C370.776 125.436 370.864 125.197 370.907 124.945C370.949 124.693 370.945 124.433 370.894 124.183C370.844 123.933 370.749 123.698 370.615 123.493C370.48 123.289 370.31 123.119 370.115 122.994C368.923 122.288 366.787 123.592 365.941 124.565C365.875 124.64 365.1 125.758 364.913 126.054C365.01 125.012 365.114 123.972 365.252 122.953C365.433 121.575 365.69 120.212 366.023 118.873C366.103 118.907 368.229 119.832 369.257 119.75C370.149 119.678 371.267 119.301 371.783 118.384C371.911 118.174 371.999 117.935 372.041 117.684C372.083 117.432 372.079 117.172 372.029 116.923C371.979 116.673 371.883 116.438 371.749 116.233C371.615 116.029 371.445 115.859 371.25 115.735C370.059 115.026 367.924 116.333 367.075 117.306C367.01 117.381 366.174 118.585 366.035 118.817C366.057 118.739 366.069 118.658 366.091 118.58C366.467 117.242 366.947 115.946 367.524 114.707C367.829 114.02 368.154 113.38 368.493 112.768C368.874 112.989 370.622 113.967 371.555 114.008C372.447 114.05 373.596 113.816 374.195 112.975C374.342 112.782 374.453 112.556 374.519 112.311C374.585 112.066 374.606 111.807 374.58 111.553C374.554 111.298 374.482 111.052 374.368 110.831C374.254 110.611 374.101 110.421 373.919 110.273C372.801 109.418 370.554 110.446 369.618 111.304C369.567 111.351 369.097 111.893 368.758 112.293C368.91 112.013 369.061 111.734 369.211 111.474C369.773 110.502 370.338 109.65 370.845 108.901C371.133 108.476 371.405 108.102 371.662 107.752C372.132 107.752 374.028 107.677 374.857 107.227C375.686 106.777 376.59 105.973 376.796 104.905C376.849 104.656 376.857 104.397 376.818 104.144C376.778 103.892 376.693 103.652 376.568 103.44C376.443 103.227 376.281 103.048 376.092 102.913C375.902 102.778 375.691 102.69 375.47 102.656C374.137 102.488 372.561 104.595 372.076 105.855C372.035 105.964 371.548 107.755 371.572 107.752H371.599C371.356 108.082 371.08 108.44 370.796 108.837C370.275 109.577 369.691 110.415 369.099 111.379C368.464 112.409 367.88 113.48 367.352 114.587C366.755 115.824 366.256 117.12 365.861 118.46C365.856 118.476 365.852 118.493 365.849 118.51C365.849 118.057 365.849 116.791 365.827 116.694C365.672 115.327 364.678 112.782 363.359 112.502C363.139 112.463 362.915 112.478 362.7 112.545C362.485 112.613 362.285 112.732 362.113 112.894C361.94 113.056 361.8 113.258 361.699 113.488C361.599 113.717 361.542 113.967 361.531 114.224C361.454 115.311 362.137 116.397 362.804 117.085C363.556 117.859 365.643 118.608 365.808 118.666C365.435 120.04 365.141 121.44 364.928 122.858C364.799 123.696 364.685 124.52 364.595 125.372C364.595 124.981 364.596 124.632 364.579 124.584C364.423 123.215 363.429 120.673 362.111 120.393C361.891 120.353 361.666 120.367 361.451 120.434C361.236 120.501 361.036 120.619 360.863 120.781C360.69 120.944 360.549 121.146 360.449 121.375C360.348 121.604 360.291 121.855 360.281 122.112C360.205 123.198 360.889 124.285 361.556 124.973C362.222 125.66 363.999 126.35 364.465 126.524C364.431 126.845 364.392 127.169 364.358 127.49C364.198 129.041 364.043 130.589 363.851 132.101C363.783 132.634 363.701 133.157 363.609 133.679C363.609 133.333 363.609 133.039 363.592 132.995C363.439 131.626 362.445 129.083 361.127 128.804C360.906 128.764 360.682 128.778 360.467 128.846C360.252 128.913 360.051 129.032 359.879 129.194C359.706 129.356 359.565 129.559 359.465 129.788C359.364 130.017 359.307 130.268 359.296 130.525C359.219 131.612 359.905 132.699 360.571 133.386C361.238 134.073 362.843 134.694 363.4 134.903C363.303 135.434 363.206 135.968 363.09 136.479C363.005 136.826 362.942 137.166 362.848 137.51C362.753 137.854 362.656 138.192 362.562 138.527C362.36 139.164 362.157 139.824 361.946 140.441C361.803 140.869 361.66 141.279 361.517 141.687C361.59 141.157 361.713 140.117 361.713 140.028C361.7 138.814 361.416 137.625 360.889 136.574C360.891 136.44 360.884 136.305 360.867 136.172C360.84 135.917 360.766 135.672 360.65 135.452C360.535 135.233 360.381 135.044 360.198 134.897C360.015 134.751 359.807 134.651 359.588 134.603C359.37 134.556 359.145 134.562 358.928 134.621C357.631 135.018 356.812 137.639 356.746 139.016C356.746 139.097 356.79 139.983 356.826 140.542C356.761 140.218 356.7 139.902 356.63 139.569C356.494 138.907 356.341 138.253 356.181 137.549C356.093 137.212 356.003 136.871 355.912 136.527C355.83 136.186 355.704 135.834 355.6 135.484C355.343 134.677 355.049 133.872 354.739 133.07C355.241 132.931 357.013 132.411 357.726 131.779C358.438 131.148 359.18 130.128 359.18 129.035C359.186 128.779 359.145 128.524 359.06 128.287C358.975 128.05 358.848 127.836 358.687 127.659C358.525 127.483 358.333 127.347 358.123 127.262C357.914 127.176 357.69 127.143 357.469 127.163C356.135 127.331 354.979 129.779 354.737 131.128C354.722 131.212 354.642 132.204 354.608 132.752C354.419 132.271 354.23 131.791 354.024 131.31C353.428 129.93 352.788 128.552 352.155 127.172C351.961 126.75 351.772 126.334 351.58 125.906C351.76 125.859 353.881 125.291 354.678 124.584C355.386 123.958 356.133 122.933 356.133 121.841C356.139 121.584 356.098 121.329 356.012 121.092C355.927 120.855 355.799 120.642 355.638 120.465C355.476 120.289 355.284 120.154 355.074 120.069C354.864 119.984 354.641 119.95 354.419 119.971C353.088 120.136 351.932 122.584 351.69 123.933C351.67 124.037 351.559 125.465 351.546 125.828C351.127 124.897 350.715 123.964 350.334 123.034C349.825 121.77 349.388 120.47 349.025 119.141C349.11 119.119 351.323 118.538 352.14 117.817C352.851 117.188 353.595 116.163 353.595 115.073C353.601 114.817 353.561 114.561 353.476 114.324C353.391 114.087 353.264 113.873 353.102 113.696C352.941 113.519 352.749 113.384 352.539 113.299C352.329 113.213 352.105 113.18 351.883 113.201C350.55 113.366 349.394 115.814 349.151 117.166C349.134 117.272 349.013 118.806 349.008 119.085C348.989 119.01 348.96 118.932 348.941 118.856C348.611 117.508 348.387 116.129 348.269 114.735C348.194 113.967 348.16 113.229 348.141 112.5C348.562 112.441 350.49 112.145 351.292 111.589C352.094 111.033 352.904 110.13 353.001 109.043C353.031 108.789 353.014 108.531 352.952 108.284C352.89 108.038 352.783 107.81 352.64 107.614C352.496 107.418 352.318 107.26 352.117 107.148C351.917 107.037 351.699 106.975 351.476 106.967C350.136 106.967 348.754 109.25 348.385 110.563C348.364 110.633 348.23 111.385 348.143 111.932C348.143 111.608 348.128 111.273 348.143 110.963C348.143 109.795 348.208 108.728 348.272 107.778C348.313 107.241 348.356 106.755 348.405 106.302C348.793 105.995 350.344 104.732 350.829 103.832C351.314 102.932 351.675 101.681 351.326 100.666C351.251 100.425 351.133 100.204 350.98 100.018C350.826 99.8326 350.641 99.6863 350.435 99.5888C350.229 99.4912 350.008 99.4447 349.786 99.4523C349.563 99.4598 349.345 99.5213 349.144 99.6326C347.952 100.342 347.639 103.106 347.835 104.466C347.855 104.584 348.303 106.386 348.32 106.372L348.342 106.353C348.288 106.788 348.238 107.258 348.192 107.769C348.109 108.716 348.024 109.787 348 110.96C347.962 112.223 347.988 113.487 348.08 114.746C348.173 116.161 348.377 117.564 348.688 118.937C348.688 118.951 348.688 118.968 348.688 118.985C348.478 118.602 347.857 117.557 347.801 117.484C347.018 116.439 344.975 114.956 343.741 115.559C343.538 115.666 343.358 115.821 343.211 116.014C343.064 116.207 342.953 116.433 342.887 116.678C342.821 116.923 342.8 117.181 342.826 117.436C342.852 117.691 342.924 117.937 343.038 118.158C343.469 119.116 344.56 119.588 345.445 119.737Z" fill="#0B71BB"/>
<path d="M368.428 112.472C368.447 112.489 368.855 110.67 368.869 110.553C369.034 109.187 368.656 106.434 367.449 105.764C367.246 105.659 367.026 105.604 366.803 105.603C366.58 105.602 366.36 105.656 366.157 105.759C365.953 105.863 365.771 106.015 365.622 106.206C365.473 106.396 365.36 106.621 365.291 106.865C364.969 107.89 365.378 109.147 365.863 110.011C366.433 111.034 368.425 112.472 368.428 112.472Z" fill="#0B71BB"/>
<g opacity="0.3">
<path d="M237.431 91.9643C239.007 92.5454 242.689 92.0062 242.691 92.0062C242.73 92.0062 241.647 89.3182 241.562 89.1561C240.578 87.3008 237.727 84.3837 235.674 84.9649C234.192 85.3756 233.514 87.2002 233.998 88.7957C234.483 90.3912 236.088 91.4725 237.431 91.9643Z" stroke="black" stroke-width="1.10658" stroke-linecap="round" stroke-linejoin="round"/>
<path d="M261.103 120.321C262 119.203 262.8 117.664 262.649 116.149C262.487 114.473 261.195 113.165 259.699 113.534C257.631 114.045 256.162 118.099 255.973 120.265C255.973 120.399 255.973 121.969 256.002 122.833C255.636 122.115 255.275 121.397 254.882 120.684C253.753 118.625 252.555 116.585 251.367 114.537C251.001 113.911 250.64 113.282 250.286 112.656C250.451 112.592 251.668 112.098 252.87 111.463" stroke="black" stroke-width="1.10658" stroke-linecap="round" stroke-linejoin="round"/>
<path d="M258.531 128.355C258.356 127.885 258.138 127.41 257.946 126.933C257.43 125.714 256.858 124.507 256.25 123.3C257.434 122.829 258.585 122.252 259.692 121.573" stroke="black" stroke-width="1.10658" stroke-linecap="round" stroke-linejoin="round"/>
<path d="M274.085 106.322C273.57 106.76 273.101 107.266 272.686 107.828C272.597 107.954 271.537 109.857 271.288 110.343C271.288 108.689 271.307 107.04 271.38 105.417C271.47 103.222 271.682 101.036 272.015 98.8727C272.146 98.9118 275.61 99.9624 277.21 99.6411C278.599 99.3617 280.301 98.5569 280.982 97.0258C281.663 95.4946 281.19 93.6085 279.77 92.9686C277.801 92.0829 274.638 94.5306 273.445 96.2154C273.351 96.3468 272.211 98.3949 272.027 98.7833C272.049 98.6575 272.056 98.5262 272.078 98.4005C272.466 96.2424 273.019 94.1283 273.731 92.0829C274.114 90.9457 274.534 89.8867 274.96 88.864C275.588 89.1434 278.47 90.3449 279.937 90.2359C281.345 90.1326 283.112 89.5514 283.934 88.118C284.756 86.6846 284.465 84.7454 283.117 83.9267C281.246 82.8091 277.867 84.8265 276.521 86.3521C276.446 86.4331 275.794 87.3719 275.309 88.0621C275.508 87.6039 275.707 87.1288 275.906 86.693C276.647 85.0612 277.413 83.6194 278.102 82.3508C278.497 81.6327 278.868 80.9901 279.222 80.3949C279.949 80.2916 282.923 79.8361 284.16 78.9727C285.396 78.1093 286.69 76.7039 286.858 74.9882C287.025 73.2726 285.983 71.7135 284.46 71.7079C282.346 71.7079 280.16 75.2956 279.573 77.3661C279.522 77.5449 279.011 80.4396 279.047 80.4396H279.093C278.744 80.9985 278.366 81.616 277.985 82.2922C277.27 83.5495 276.475 84.9746 275.7 86.5924C274.848 88.3272 274.083 90.1176 273.411 91.9544C272.65 94.0077 272.049 96.135 271.615 98.3111C271.615 98.3362 271.615 98.3641 271.615 98.3893C271.562 97.6796 271.356 95.6957 271.324 95.5448C270.89 93.4297 268.97 89.6324 266.864 89.4396C265.346 89.2999 264.197 90.7948 264.238 92.4797C264.28 94.1645 265.496 95.7768 266.638 96.7296C267.928 97.8025 271.307 98.5849 271.576 98.6492C271.182 100.875 270.917 103.128 270.783 105.394C270.701 106.716 270.653 108.049 270.616 109.387C270.553 108.772 270.493 108.225 270.478 108.149C270.044 106.031 268.124 102.237 266.018 102.044C264.5 101.904 263.351 103.399 263.392 105.084C263.434 106.769 264.65 108.381 265.792 109.331C266.934 110.281 269.821 111.033 270.582 111.217C270.582 111.729 270.56 112.243 270.553 112.754C270.519 115.216 270.495 117.675 270.408 120.083C270.379 120.921 270.32 121.76 270.267 122.598C270.209 122.039 270.158 121.595 270.143 121.528C269.71 119.41 267.792 115.615 265.686 115.42C264.166 115.283 263.019 116.778 263.058 118.46C263.097 120.142 264.316 121.76 265.458 122.71C266.599 123.66 269.208 124.339 270.112 124.559C270.034 125.414 269.957 126.269 269.848 127.091C269.763 127.65 269.714 128.209 269.605 128.767C269.496 129.326 269.402 129.868 269.302 130.413C269.077 131.45 268.849 132.523 268.607 133.531C268.444 134.233 268.274 134.898 268.122 135.566C268.161 134.727 268.207 133.068 268.197 132.928C268.002 131.027 267.388 129.216 266.413 127.666C266.399 127.454 266.368 127.244 266.321 127.038C265.942 125.412 264.483 124.344 263.06 124.967C261.085 125.833 260.166 130.097 260.265 132.271C260.265 132.397 260.469 133.78 260.605 134.649C260.457 134.154 260.319 133.668 260.161 133.16C259.856 132.148 259.523 131.151 259.17 130.086" stroke="black" stroke-width="1.10658" stroke-linecap="round" stroke-linejoin="round"/>
<path d="M249.036 126.051C249.751 126.355 250.503 126.526 251.264 126.557C252.626 126.621 255.169 125.528 256.03 125.14C256.374 125.903 256.718 126.663 257.021 127.42C257.218 127.943 257.438 128.429 257.61 128.965C257.782 129.502 257.969 130.013 258.146 130.53C258.454 131.539 258.779 132.578 259.058 133.573C259.256 134.263 259.436 134.922 259.618 135.587C259.247 134.858 258.493 133.45 258.418 133.338C257.254 131.628 254.132 129.108 252.149 129.949C250.719 130.555 250.227 132.463 250.869 133.978C251.511 135.492 253.208 136.364 254.592 136.677C256.115 137.018 259.341 136.155 259.744 136.043C260.039 137.144 260.321 138.219 260.57 139.239C260.756 139.994 260.931 140.72 261.094 141.419L262.403 141.262C262.207 140.485 261.998 139.675 261.77 138.829C261.472 137.711 261.135 136.518 260.779 135.3C261.722 134.727 262.635 134.092 263.513 133.397C264.711 134.612 267.607 135.853 267.983 136.012C267.704 137.13 267.423 138.194 267.142 139.203C266.997 139.739 266.851 140.245 266.708 140.745L268.092 140.58C268.175 140.265 268.257 139.955 268.335 139.625C268.621 138.507 268.909 137.295 269.195 136.051C269.6 136.099 272.904 136.467 274.376 135.897C275.711 135.378 277.285 134.285 277.769 132.656C278.254 131.027 277.527 129.239 276.039 128.856C273.978 128.323 271.171 131.296 270.221 133.17C270.162 133.279 269.668 134.567 269.365 135.372C269.479 134.864 269.595 134.369 269.707 133.844C269.937 132.807 270.136 131.765 270.356 130.644C270.446 130.086 270.538 129.546 270.628 128.99C270.718 128.434 270.776 127.845 270.853 127.266C271.006 125.922 271.096 124.553 271.176 123.17C271.964 123.396 274.773 124.159 276.169 123.88C277.566 123.6 279.258 122.796 279.939 121.267C280.62 119.739 280.147 117.847 278.727 117.207C276.758 116.322 273.593 118.769 272.4 120.454C272.325 120.56 271.588 121.879 271.188 122.614C271.224 121.776 271.265 120.952 271.28 120.099C271.324 117.666 271.299 115.201 271.28 112.742C271.28 111.988 271.28 111.236 271.28 110.485C271.561 110.571 274.882 111.56 276.446 111.245C277.835 110.965 279.534 110.163 280.215 108.632C280.896 107.101 280.424 105.215 279.003 104.575C278.077 104.159 276.887 104.48 275.762 105.111" stroke="black" stroke-width="1.10658" stroke-linecap="round" stroke-linejoin="round"/>
<path d="M246.81 123.415C246.886 123.816 247.03 124.196 247.233 124.532C247.421 124.844 247.65 125.12 247.912 125.351" stroke="black" stroke-width="1.10658" stroke-linecap="round" stroke-linejoin="round"/>
<path d="M240.391 104.101C242.071 103.894 244.628 102.704 244.856 102.589C245.591 104.697 246.448 106.745 247.421 108.72C247.983 109.877 248.58 111.019 249.19 112.157C248.844 111.684 248.534 111.265 248.483 111.212C247.108 109.723 243.69 107.778 241.841 108.955C240.507 109.793 240.272 111.777 241.113 113.163C241.954 114.548 243.741 115.118 245.147 115.18C246.553 115.241 249.321 114.037 250.046 113.705C250.289 114.138 250.516 114.574 250.756 115.007C251.908 117.08 253.064 119.145 254.15 121.21C254.531 121.936 254.877 122.668 255.239 123.4C254.931 122.984 254.669 122.635 254.623 122.584C253.248 121.095 249.83 119.15 247.981 120.327C247.561 120.593 247.222 121.002 247.011 121.498" stroke="black" stroke-width="1.10658" stroke-linecap="round" stroke-linejoin="round"/>
<path d="M250.054 86.7643C250.106 86.5059 250.132 86.2416 250.134 85.9763C250.134 84.2998 248.965 82.8273 247.45 83.0033C245.346 83.252 243.501 87.0968 243.109 89.2231C243.087 89.3377 242.98 90.542 242.917 91.4193C242.864 90.9108 242.801 90.3883 242.759 89.8993C242.597 88.0663 242.546 86.3787 242.517 84.8698C242.502 84.0176 242.505 83.2492 242.517 82.5283C243.082 81.9695 245.336 79.7034 245.957 78.2002C246.577 76.6969 246.98 74.6712 246.291 73.1456C245.603 71.6199 243.993 70.9689 242.721 71.9329C240.953 73.2685 240.852 77.6609 241.353 79.7565C241.397 79.9381 242.357 82.682 242.386 82.6541L242.42 82.6205C242.398 83.3135 242.384 84.0595 242.381 84.8698C242.381 86.3703 242.406 88.0663 242.534 89.8993C242.652 91.8879 242.872 93.8667 243.191 95.8257C243.54 98.022 244.058 100.178 244.738 102.269C244.738 102.294 244.757 102.319 244.764 102.342C244.381 101.783 243.259 100.26 243.162 100.154C241.787 98.6646 238.369 96.7199 236.52 97.899C235.187 98.7372 234.951 100.718 235.793 102.104C236.43 103.163 237.591 103.73 238.723 103.976" stroke="black" stroke-width="1.10658" stroke-linecap="round" stroke-linejoin="round"/>
<path d="M253.785 110.94C254.209 110.686 254.604 110.374 254.961 110.009C255.987 108.892 257.022 107.143 256.857 105.433C256.692 103.722 255.402 102.451 253.907 102.82C251.839 103.331 250.37 107.386 250.183 109.548C250.169 109.713 250.195 111.971 250.224 112.546C249.437 111.163 248.661 109.777 247.943 108.378C246.967 106.489 246.098 104.529 245.342 102.51C245.468 102.46 248.862 101.132 250.043 99.847C251.066 98.7293 252.101 96.9802 251.936 95.2702C251.771 93.5601 250.481 92.286 248.986 92.6548C246.918 93.1662 245.451 97.2205 245.262 99.386C245.248 99.5564 245.277 101.987 245.308 102.426C245.265 102.311 245.209 102.194 245.168 102.077C244.458 100.03 243.908 97.9135 243.524 95.7535C243.299 94.566 243.141 93.4148 243.008 92.2888C243.662 92.1184 246.644 91.2913 247.815 90.2686C248.383 89.7795 248.887 89.1967 249.308 88.539" stroke="black" stroke-width="1.10658" stroke-linecap="round" stroke-linejoin="round"/>
<path d="M274.834 88.441C274.871 88.4606 275.251 85.5351 275.259 85.3479C275.324 83.1741 274.342 78.9213 272.35 78.0999C270.919 77.5047 269.477 78.6 269.121 80.2318C268.764 81.8636 269.579 83.7971 270.464 85.0601C271.506 86.5438 274.832 88.441 274.834 88.441Z" stroke="black" stroke-width="1.10658" stroke-linecap="round" stroke-linejoin="round"/>
</g>
<g opacity="0.3">
<path d="M330.427 52.6198C331.743 53.2317 333.062 53.6564 333.064 53.6564C333.067 53.6564 333.008 50.7198 332.996 50.5242C332.713 48.3755 331.057 44.4106 328.984 44.0194C327.481 43.74 326.238 45.1203 326.151 46.8135C326.063 48.5068 327.171 50.2168 328.243 51.2842" stroke="black" stroke-width="1.10658" stroke-linecap="round" stroke-linejoin="round"/>
<path d="M361.514 75.8439C361.767 75.9761 362.029 76.0818 362.297 76.1596C363.672 76.5201 365.509 76.5452 366.661 75.4388C367.812 74.3323 368.004 72.3819 366.903 71.1581C365.388 69.4593 361.645 70.2975 359.977 71.3174C359.847 71.3956 358.108 72.7731 357.808 73.047C357.868 72.9408 357.922 72.8234 357.982 72.7172C359.069 70.903 360.292 69.2031 361.638 67.6375C362.365 66.7601 363.114 65.961 363.854 65.2205C364.338 65.7542 366.588 68.1544 367.975 68.7132C369.305 69.2497 371.126 69.504 372.372 68.5512C372.829 68.2121 373.181 67.7162 373.38 67.1336C373.579 66.551 373.614 65.9111 373.48 65.3043" stroke="black" stroke-width="1.10658" stroke-linecap="round" stroke-linejoin="round"/>
<path d="M341.775 41.0571C342.374 40.1155 342.805 39.0006 342.728 37.883C342.609 36.2065 341.344 34.8513 339.845 35.167C337.766 35.6085 336.192 39.6098 335.947 41.7668C335.928 41.9513 335.887 44.9103 335.923 44.8991L335.967 44.8823C335.724 45.5138 335.448 46.19 335.174 46.9388C334.672 48.3359 334.12 49.895 333.615 51.6526C333.054 53.5381 332.59 55.4601 332.224 57.4085C331.805 59.5878 331.555 61.8058 331.477 64.0363C331.476 64.0633 331.476 64.0903 331.477 64.1173C331.313 63.4271 330.791 61.5243 330.75 61.3818C329.984 59.3952 327.492 56.0729 325.39 56.33C323.875 56.5144 322.993 58.2272 323.294 59.8758C323.594 61.5243 325.058 62.8488 326.333 63.5417C327.771 64.3213 331.218 64.3799 331.492 64.3799C331.458 66.6509 331.554 68.9219 331.78 71.1781C331.909 72.4942 332.074 73.813 332.265 75.1347C332.105 74.5451 331.957 74.017 331.931 73.9499C331.165 71.9605 328.67 68.641 326.569 68.8953C325.056 69.0825 324.174 70.7953 324.474 72.4411C324.775 74.0868 326.239 75.4169 327.514 76.107C328.789 76.7972 331.744 76.9229 332.522 76.9453C332.597 77.451 332.665 77.9568 332.74 78.4625C333.102 80.8906 333.468 83.3104 333.771 85.6966C333.877 86.5348 333.955 87.3731 334.035 88.2113C333.892 87.686 333.768 87.2473 333.742 87.1831C332.978 85.1936 330.484 81.8742 328.382 82.1284C326.869 82.3156 325.987 84.0285 326.287 85.6742C326.588 87.32 328.052 88.65 329.327 89.3401C330.561 90.0107 333.271 90.1449 334.195 90.1784C334.255 91.0362 334.316 91.8912 334.34 92.7239C334.34 93.2827 334.386 93.8415 334.365 94.4004C334.343 94.9592 334.34 95.518 334.331 96.0769C334.275 97.1442 334.221 98.2479 334.146 99.2873C334.095 100.014 334.037 100.701 333.982 101.397C333.885 100.559 333.664 98.9213 333.632 98.7872C333.148 96.6888 331.109 92.967 328.998 92.8552C327.47 92.7714 326.375 94.3082 326.447 95.9846C326.52 97.6611 327.8 99.2315 328.968 100.137C330.258 101.137 333.521 101.783 333.931 101.861C333.831 103.009 333.727 104.124 333.615 105.177C333.533 105.954 333.448 106.703 333.361 107.413L334.621 107.854C334.704 107.053 334.785 106.215 334.864 105.339C334.968 104.174 335.058 102.925 335.14 101.643C336.199 101.537 337.251 101.361 338.292 101.115C338.987 102.769 341.239 105.211 341.53 105.524C340.9 106.421 340.279 107.284 339.681 108.089C339.365 108.516 339.062 108.927 338.762 109.316L340.093 109.782L340.643 109.014C341.288 108.108 341.959 107.122 342.643 106.105C342.997 106.331 345.918 108.15 347.467 108.282C348.873 108.402 350.693 108.103 351.678 106.812C352.662 105.521 352.604 103.554 351.362 102.537C349.644 101.12 346.056 102.604 344.541 103.9C344.451 103.979 343.571 104.934 343.011 105.549C343.288 105.13 343.562 104.728 343.84 104.294C344.4 103.442 344.938 102.57 345.518 101.634L346.325 100.237C346.604 99.7735 346.846 99.2454 347.113 98.7481C347.707 97.5773 348.257 96.3591 348.79 95.1157C349.44 95.6745 351.772 97.6304 353.154 98.0048C354.536 98.3792 356.366 98.3904 357.517 97.2839C358.669 96.1774 358.86 94.2271 357.76 93.0033C356.245 91.3044 352.504 92.1427 350.836 93.1625C350.732 93.2268 349.607 94.1126 348.996 94.6127C349.312 93.8639 349.629 93.1178 349.927 92.3467C350.788 90.1113 351.598 87.8425 352.412 85.5708C352.654 84.8751 352.919 84.1737 353.173 83.492C353.416 83.6959 356.131 86.0961 357.677 86.5041C359.049 86.8673 360.889 86.8897 362.041 85.7832C363.192 84.6767 363.384 82.7292 362.283 81.5053C360.768 79.8065 357.028 80.6447 355.36 81.6618C355.234 81.74 353.617 83.017 353.219 83.3662C353.779 81.8406 354.349 80.329 354.965 78.8649C355.786 76.8823 356.718 74.9634 357.755 73.1201C358.604 73.8663 359.489 74.5557 360.407 75.1849" stroke="black" stroke-width="1.10658" stroke-linecap="round" stroke-linejoin="round"/>
<path d="M339.721 53.791C340.678 53.2741 341.565 52.4917 341.96 51.4104C342.528 49.8596 341.943 47.9848 340.489 47.4706C338.467 46.7553 335.471 49.4712 334.392 51.2567C334.332 51.3545 333.83 52.4163 333.474 53.1959C333.597 52.7041 333.716 52.1928 333.842 51.7233C334.31 49.963 334.833 48.3843 335.296 46.99C335.57 46.1993 335.832 45.4896 336.084 44.8302C336.792 44.5703 339.631 43.489 340.71 42.3825C340.816 42.2735 340.92 42.1589 341.025 42.0388" stroke="black" stroke-width="1.10658" stroke-linecap="round" stroke-linejoin="round"/>
<path d="M372.815 64.0712C371.319 62.4841 367.8 62.8474 366.129 63.6102C366.035 63.6549 365.106 64.2221 364.432 64.644C364.769 64.3115 365.114 63.9622 365.443 63.6521C366.677 62.4813 367.867 61.495 368.929 60.6316C369.538 60.1482 370.095 59.7235 370.626 59.3323C371.339 59.567 374.226 60.4695 375.656 60.232C377.086 59.9945 378.771 59.2569 379.493 57.7508C380.216 56.2448 379.789 54.3419 378.388 53.6546C376.449 52.699 373.217 55.0517 371.981 56.6807C371.874 56.8232 370.422 59.2652 370.461 59.2764H370.505C369.991 59.6425 369.446 60.0392 368.859 60.4891C367.778 61.3273 366.563 62.2829 365.303 63.4285C363.933 64.6439 362.626 65.95 361.388 67.3404C359.995 68.8923 358.725 70.5838 357.592 72.395L357.555 72.462C357.747 71.7831 358.224 69.8635 358.246 69.7126C358.559 67.5667 358.069 63.2106 356.193 62.0873C354.843 61.2798 353.284 62.1488 352.748 63.7135C352.213 65.2783 352.797 67.3152 353.529 68.7039C354.355 70.2686 357.206 72.504 357.432 72.6828C356.319 74.5593 355.316 76.5196 354.431 78.5505C353.907 79.7324 353.412 80.9367 352.93 82.155C353.08 81.5598 353.209 81.0373 353.219 80.9535C353.531 78.8076 353.044 74.4515 351.168 73.3282C349.815 72.5207 348.259 73.3897 347.723 74.9544C347.187 76.5192 347.772 78.5561 348.504 79.9448C349.236 81.3335 351.655 83.3145 352.283 83.8259C352.101 84.2953 351.917 84.7591 351.737 85.223C350.877 87.4778 350.026 89.7299 349.134 91.9122C348.821 92.6806 348.487 93.4238 348.164 94.1698C348.295 93.6417 348.407 93.1975 348.407 93.1276C348.719 90.9817 348.23 86.6256 346.353 85.5052C345.001 84.6977 343.444 85.5638 342.909 87.1286C342.373 88.6933 342.957 90.7302 343.689 92.1189C344.397 93.4629 346.598 95.2987 347.355 95.9078C346.993 96.6594 346.627 97.4139 346.256 98.1236C345.99 98.6014 345.76 99.082 345.469 99.5458L344.625 100.943C344.067 101.798 343.498 102.686 342.928 103.505C342.54 104.064 342.16 104.623 341.782 105.159C342.102 104.396 342.703 102.893 342.739 102.759C343.201 100.921 343.247 98.9763 342.87 97.1121C342.929 96.9101 342.972 96.7025 342.998 96.4918C343.197 94.8153 342.213 93.1863 340.691 93.1248C338.579 93.0382 336.296 96.5588 335.653 98.6042C335.615 98.7243 335.331 100.085 335.169 100.948C335.198 100.426 335.234 99.9174 335.261 99.3754C335.319 98.308 335.348 97.2406 335.387 96.0922C335.387 95.5334 335.387 94.9746 335.387 94.4157C335.387 93.8569 335.348 93.2589 335.331 92.675C335.266 91.3226 335.142 89.9535 334.992 88.5787C335.804 88.6374 338.688 88.7883 340.014 88.2155C341.34 87.6427 342.892 86.4859 343.316 84.8374C343.74 83.1888 342.974 81.4341 341.479 81.1072C339.401 80.6545 336.681 83.7337 335.779 85.6421C335.721 85.7622 335.207 87.2152 334.938 88.0227C334.844 87.1845 334.752 86.3714 334.63 85.5387C334.284 83.1385 333.867 80.7216 333.46 78.3074C333.336 77.567 333.217 76.8293 333.098 76.0917C333.389 76.114 336.812 76.3711 338.298 75.7396C339.617 75.1808 341.161 74.0184 341.585 72.3698C342.009 70.7213 341.243 68.9666 339.748 68.6396C337.67 68.187 334.95 71.2661 334.049 73.1746C333.981 73.3199 333.241 75.4099 333.079 75.9687C332.817 74.3397 332.57 72.7163 332.381 71.1041C332.118 68.9281 331.977 66.7348 331.959 64.5378C332.095 64.5378 335.668 64.8452 337.188 64.1886C338.509 63.6297 340.051 62.4674 340.475 60.8188C340.899 59.1702 340.133 57.4155 338.637 57.0886C336.56 56.6359 333.843 59.7123 332.938 61.6235C332.868 61.7744 332.075 64.0265 331.969 64.4484C331.969 64.3199 331.957 64.1886 331.957 64.06C331.994 61.8565 332.2 59.6611 332.572 57.4993C332.766 56.3034 333.009 55.1718 333.266 54.0765C333.925 54.2106 336.95 54.7834 338.376 54.3559C338.553 54.3028 338.734 54.2442 338.916 54.1715" stroke="black" stroke-width="1.10658" stroke-linecap="round" stroke-linejoin="round"/>
<path d="M363.884 64.7608C363.91 64.7944 365.249 62.2684 365.316 62.098C366.109 60.1253 366.638 55.772 365.074 54.1207C363.956 52.9304 362.257 53.2824 361.38 54.6404C360.502 55.9983 360.601 58.1275 360.989 59.6894C361.455 61.5252 363.884 64.758 363.884 64.7608Z" stroke="black" stroke-width="1.10658" stroke-linecap="round" stroke-linejoin="round"/>
</g>
<path d="M288.846 81.0346H366.016L356.028 144.853H278.859L288.846 81.0346Z" fill="white" stroke="#263238" stroke-width="1.10658" stroke-linecap="round" stroke-linejoin="round"/>
<path d="M364.474 81.0346L359.672 111.726L355.238 140.061L354.487 144.856H277.32L284.777 97.2072L287.307 81.0346H364.474Z" fill="#263238" stroke="#263238" stroke-width="1.10658" stroke-linecap="round" stroke-linejoin="round"/>
<path d="M289.412 83.0347H361.74L352.378 142.852H280.05L289.412 83.0347Z" fill="#0B71BB" stroke="#263238" stroke-width="1.10658" stroke-linecap="round" stroke-linejoin="round"/>
<path d="M280.781 138.177L280.049 142.855H352.378L353.11 138.177H280.781Z" fill="#BFBFBF" stroke="#263238" stroke-width="1.10658" stroke-linecap="round" stroke-linejoin="round"/>
<path d="M359.595 83.0355L350.234 142.853H352.376L361.738 83.0355H359.595Z" fill="#BFBFBF" stroke="#263238" stroke-width="1.10658" stroke-linecap="round" stroke-linejoin="round"/>
<path d="M358.34 104.776L360.16 93.1382H358.02L356.197 104.776H358.34Z" fill="#A1A1A1" stroke="#263238" stroke-width="1.10658" stroke-linecap="round" stroke-linejoin="round"/>
<path d="M354.852 140.629H260.127V144.854H354.852V140.629Z" fill="white" stroke="#263238" stroke-width="1.10658" stroke-linecap="round" stroke-linejoin="round"/>
<path d="M273.63 140.629H227.136V144.854H273.63V140.629Z" fill="#263238" stroke="#263238" stroke-width="1.10658" stroke-linecap="round" stroke-linejoin="round"/>
<path d="M288.748 87.261H361.076L361.738 83.0362H289.41L288.748 87.261Z" fill="#BFBFBF" stroke="#263238" stroke-width="1.10658" stroke-linecap="round" stroke-linejoin="round"/>
<path d="M293.301 85.9449H327.753L328.068 83.9311H293.616L293.301 85.9449Z" fill="white" stroke="#263238" stroke-width="1.10658" stroke-linecap="round" stroke-linejoin="round"/>
<path opacity="0.2" d="M291.61 106.36H318.326L314.87 128.456H288.153L291.61 106.36Z" fill="black"/>
<path d="M289.96 104.318H316.678L313.222 126.412H286.503L289.96 104.318Z" fill="white" stroke="#263238" stroke-width="1.10658" stroke-linecap="round" stroke-linejoin="round"/>
<path d="M316.276 106.893L316.681 104.319H289.962L289.56 106.893H316.276Z" fill="#263238" stroke="#263238" stroke-width="1.10658" stroke-linecap="round" stroke-linejoin="round"/>
<path d="M315.197 105.661C315.198 105.812 315.159 105.96 315.087 106.086C315.014 106.211 314.911 106.309 314.79 106.367C314.669 106.425 314.535 106.441 314.407 106.411C314.278 106.382 314.16 106.31 314.067 106.203C313.975 106.096 313.912 105.96 313.886 105.812C313.861 105.664 313.874 105.51 313.924 105.371C313.975 105.231 314.06 105.112 314.169 105.029C314.278 104.945 314.407 104.901 314.538 104.902C314.713 104.902 314.88 104.982 315.004 105.124C315.128 105.266 315.197 105.46 315.197 105.661Z" fill="white" stroke="#263238" stroke-width="1.10658" stroke-linecap="round" stroke-linejoin="round"/>
<path d="M300.322 109.345C301.621 109.562 302.031 110.761 301.737 112.466L301.679 112.809H300.53L300.605 112.373C300.797 111.256 300.523 110.56 299.636 110.56C298.748 110.56 298.259 111.25 298.067 112.373C297.582 115.221 301.274 115.24 300.663 118.8C300.372 120.504 299.534 121.72 298.159 121.938L297.994 122.899H296.988L297.153 121.938C295.822 121.72 295.413 120.521 295.699 118.8L295.832 118.02H296.981L296.833 118.889C296.637 120.032 296.935 120.686 297.817 120.686C298.7 120.686 299.219 120.032 299.412 118.889C299.897 116.062 296.222 116.025 296.833 112.463C297.129 110.722 297.939 109.579 299.301 109.342L299.476 108.327H300.482L300.322 109.345Z" fill="#263238"/>
<path d="M302.819 120.228L302.518 121.988H301.338L301.638 120.228H302.819ZM302.472 115.263L303.493 109.297H304.719L303.699 115.263L302.872 119.174H301.97L302.472 115.263Z" fill="#263238"/>
<path d="M305.306 120.228L305.006 121.988H303.825L304.126 120.228H305.306ZM304.962 115.263L305.98 109.297H307.209L306.189 115.263L305.367 119.174H304.453L304.962 115.263Z" fill="#263238"/>
<path opacity="0.2" d="M359.669 111.724L355.235 140.06H327.564L332 111.724H359.669Z" fill="black"/>
<path d="M329.968 109.827H364.23L359.796 138.163H325.534L329.968 109.827Z" fill="white" stroke="#263238" stroke-width="1.10658" stroke-linecap="round" stroke-linejoin="round"/>
<path d="M363.712 113.129L364.228 109.827H329.966L329.45 113.129H363.712Z" fill="#263238" stroke="#263238" stroke-width="1.10658" stroke-linecap="round" stroke-linejoin="round"/>
<path d="M362.33 111.554C362.33 111.747 362.28 111.936 362.186 112.097C362.093 112.258 361.961 112.383 361.805 112.457C361.65 112.531 361.479 112.55 361.315 112.512C361.15 112.474 360.999 112.381 360.88 112.244C360.762 112.107 360.681 111.932 360.649 111.743C360.616 111.553 360.633 111.356 360.698 111.178C360.763 110.999 360.872 110.847 361.012 110.739C361.151 110.632 361.316 110.576 361.484 110.576C361.595 110.576 361.705 110.601 361.808 110.651C361.911 110.7 362.004 110.772 362.083 110.863C362.161 110.953 362.224 111.061 362.266 111.18C362.308 111.298 362.33 111.425 362.33 111.554Z" fill="white" stroke="#263238" stroke-width="1.10658" stroke-linecap="round" stroke-linejoin="round"/>
<path d="M333.494 123.771C333.763 123.343 334.118 122.997 334.527 122.759C334.937 122.522 335.39 122.401 335.848 122.407C337.683 122.407 338.233 123.958 337.831 126.319L337.281 129.541C336.851 132.056 335.53 133.698 333.349 133.698C331.167 133.698 330.44 132.056 330.859 129.541L331.048 128.423H332.537L332.328 129.647C332.086 131.128 332.452 132.019 333.593 132.019C334.735 132.019 335.419 131.128 335.671 129.647L336.216 126.439C336.471 124.958 336.093 124.064 334.951 124.064C334.076 124.064 333.387 124.623 333.038 125.827L332.975 126.205H331.487L333.438 117.062H339.057L338.776 118.708H334.582L333.494 123.771Z" fill="#263238"/>
<path d="M340.137 121.045C340.566 118.53 341.926 116.909 344.105 116.909C346.284 116.909 347.111 118.533 346.682 121.045L345.227 129.53C344.798 132.045 343.436 133.688 341.235 133.688C339.034 133.688 338.253 132.045 338.685 129.53L340.137 121.045ZM340.236 129.648C339.994 131.129 340.382 132.02 341.523 132.02C342.665 132.02 343.368 131.129 343.62 129.648L345.116 120.952C345.373 119.446 344.995 118.555 343.831 118.555C342.668 118.555 341.986 119.446 341.729 120.952L340.236 129.648Z" fill="#263238"/>
<path d="M349.844 118.497L349.481 120.691C349.367 121.367 349.013 121.809 348.429 121.809C347.844 121.809 347.643 121.361 347.76 120.691L348.135 118.497C348.249 117.832 348.601 117.38 349.187 117.38C349.774 117.38 349.965 117.832 349.844 118.497ZM352.026 117.416L348.46 124.365H348.055L351.614 117.416H352.026ZM348.564 118.467L348.179 120.73C348.113 121.107 348.179 121.356 348.501 121.356C348.824 121.356 348.986 121.107 349.039 120.73L349.427 118.467C349.49 118.09 349.406 117.832 349.105 117.832C348.804 117.832 348.623 118.09 348.557 118.467H348.564ZM352.37 121.088L351.997 123.273C351.883 123.946 351.539 124.39 350.945 124.39C350.351 124.39 350.159 123.943 350.276 123.273L350.649 121.088C350.763 120.423 351.115 119.97 351.699 119.97C352.283 119.97 352.477 120.423 352.363 121.088H352.37ZM351.083 121.06L350.693 123.312C350.627 123.689 350.712 123.946 351.013 123.946C351.313 123.946 351.498 123.689 351.553 123.312L351.939 121.06C352.002 120.683 351.917 120.434 351.614 120.434C351.311 120.434 351.141 120.683 351.076 121.06H351.083Z" fill="#263238"/>
<path d="M346.269 126.949C346.511 125.594 347.239 124.714 348.409 124.714C349.58 124.714 350.029 125.586 349.796 126.949L349.013 131.535C348.771 132.879 348.043 133.77 346.863 133.77C345.682 133.77 345.256 132.884 345.486 131.535L346.269 126.949ZM346.322 131.588C346.184 132.398 346.4 132.865 347.016 132.865C347.631 132.865 348.007 132.398 348.148 131.588L348.948 126.899C349.086 126.103 348.882 125.619 348.254 125.619C347.626 125.619 347.26 126.103 347.125 126.899L346.322 131.588Z" fill="#263238"/>
<path d="M352.898 128.935L352.745 129.835H350.976L350.319 133.674H349.461L350.978 124.805H354.033L353.88 125.705H351.681L351.129 128.935H352.898Z" fill="#263238"/>
<path d="M356.635 128.936L356.482 129.835H354.712L354.055 133.674H353.2L354.715 124.806H357.769L357.616 125.706H355.418L354.867 128.936H356.635Z" fill="#263238"/>
<path opacity="0.2" d="M306.278 81.0367L303.747 97.2092H284.773L287.304 81.0367H306.278Z" fill="black"/>
<path d="M270.459 64.5483H306.942L302.223 94.7224H265.737L270.459 64.5483Z" fill="white" stroke="#263238" stroke-width="1.10658" stroke-linecap="round" stroke-linejoin="round"/>
<path d="M291.367 64.5482L289.256 67.4988L289.106 64.5482H288.352L287.111 67.1188L286.514 64.5482H285.685L284.905 67.2362L283.722 64.5482H283.108L282.728 67.8481L280.415 64.5678L280.658 68.9239L277.795 66.2806L278.779 70.4271L275.473 68.5243L277.162 72.302L273.541 71.2095L275.87 74.4731L272.072 74.2328L274.949 76.8565L271.121 77.4796L274.437 79.3628L270.726 80.8242L274.357 81.8943L270.903 84.138L274.707 84.3532L271.645 87.2926L275.473 86.6472L272.922 90.1706L276.629 88.6869L274.687 92.6574L278.132 90.3942L276.871 94.6608L279.918 91.7018L279.555 94.7223H280.377L281.923 92.5624L282.035 94.7223H283.208L284.071 92.9396L284.483 94.7223H285.724L286.274 92.8223L287.113 94.7223H288.163L288.454 92.2132L290.223 94.7223H290.723L290.521 91.1346L293.387 93.7779L292.4 89.6314L295.709 91.537L294.017 87.7565L297.641 88.8518L295.311 85.5882L299.11 85.8285L296.23 83.202L300.06 82.5817L296.742 80.6984L300.453 79.2371L296.824 78.1669L300.276 75.9232L296.475 75.7053L299.534 72.7658L295.707 73.4113L298.257 69.8878L294.55 71.3743L296.492 67.4011L293.05 69.6671L294.31 65.3976L291.263 68.3567L291.721 64.5482H291.367Z" fill="white" stroke="#263238" stroke-width="1.10658" stroke-linecap="round" stroke-linejoin="round"/>
<path d="M306.391 68.0661L306.941 64.5482H270.458L269.908 68.0661H306.391Z" fill="#263238" stroke="#263238" stroke-width="1.10658" stroke-linecap="round" stroke-linejoin="round"/>
<path d="M304.923 66.3876C304.923 66.5939 304.871 66.7957 304.772 66.9674C304.672 67.1392 304.531 67.2732 304.366 67.3524C304.201 67.4316 304.019 67.4524 303.843 67.4123C303.667 67.3722 303.506 67.2729 303.379 67.1271C303.253 66.9812 303.167 66.7953 303.132 66.5929C303.097 66.3906 303.115 66.1809 303.184 65.9904C303.253 65.7999 303.369 65.6372 303.518 65.523C303.667 65.4087 303.842 65.348 304.021 65.3486C304.26 65.3486 304.49 65.458 304.659 65.6529C304.828 65.8477 304.923 66.112 304.923 66.3876Z" fill="white" stroke="#263238" stroke-width="1.10658" stroke-linecap="round" stroke-linejoin="round"/>
<path d="M280.494 75.4334C281.769 75.4334 282.152 76.1348 281.914 77.5235L281.839 77.9677C281.667 78.9652 281.316 79.5855 280.559 79.8426C281.311 80.0997 281.49 80.8261 281.313 81.8656L281.175 82.6591C280.933 84.0758 280.205 84.8721 278.928 84.8721H277.044L278.656 75.4334H280.494ZM279.09 83.9137C279.757 83.9137 280.13 83.5085 280.28 82.634L280.423 81.7957C280.603 80.7451 280.3 80.3986 279.517 80.3986H278.722L278.121 83.9165L279.09 83.9137ZM279.587 79.443C280.314 79.443 280.731 79.1636 280.901 78.1885L280.996 77.6296C281.139 76.7914 280.962 76.389 280.307 76.389H279.405L278.884 79.4347L279.587 79.443Z" fill="#263238"/>
<path d="M282.875 82.6444C282.729 83.4826 282.935 84.0079 283.602 84.0079C284.269 84.0079 284.637 83.4938 284.783 82.6444L286.014 75.4326H286.87L285.643 82.5913C285.401 84.0219 284.674 84.9775 283.401 84.9775C282.128 84.9775 281.74 84.0219 281.983 82.5913L283.207 75.4326H284.109L282.875 82.6444Z" fill="#263238"/>
<path d="M288.186 81.488L287.49 75.433H288.438L288.923 80.0713L291.003 75.433H291.868L289.09 81.488L288.511 84.8717H287.611L288.186 81.488Z" fill="#263238"/>
<path d="M292.016 83.5652L291.793 84.8729H290.916L291.139 83.5652H292.016ZM291.759 79.8713L292.516 75.4342H293.427L292.668 79.8713L292.055 82.7828H291.376L291.759 79.8713Z" fill="#263238"/>
<path opacity="0.2" d="M352.014 81.037L349.464 97.3298H322.745L325.295 81.037H352.014Z" fill="black"/>
<path d="M324.687 73.1907H351.406L347.947 95.284H321.231L324.687 73.1907Z" fill="white" stroke="#263238" stroke-width="1.10658" stroke-linecap="round" stroke-linejoin="round"/>
<path d="M351.002 75.7633L351.407 73.1899H324.688L324.286 75.7633H351.002Z" fill="#263238" stroke="#263238" stroke-width="1.10658" stroke-linecap="round" stroke-linejoin="round"/>
<path d="M349.267 75.296C349.632 75.296 349.929 74.9548 349.929 74.5338C349.929 74.1129 349.632 73.7717 349.267 73.7717C348.901 73.7717 348.605 74.1129 348.605 74.5338C348.605 74.9548 348.901 75.296 349.267 75.296Z" fill="white" stroke="#263238" stroke-width="1.10658" stroke-linecap="round" stroke-linejoin="round"/>
<path d="M332.373 81.4012L331.859 84.3994H331.215L332.354 77.7353H332.999L332.487 80.7334H333.908L334.419 77.7353H335.064L333.925 84.3994H333.28L333.794 81.4012H332.373Z" fill="#263238"/>
<path d="M335.402 79.3453C335.574 78.3254 336.129 77.6688 337.009 77.6688C337.889 77.6688 338.221 78.3254 338.052 79.3453L337.462 82.7905C337.29 83.7992 336.735 84.467 335.848 84.467C334.961 84.467 334.636 83.7992 334.81 82.7905L335.402 79.3453ZM335.441 82.8296C335.337 83.4387 335.499 83.7908 335.962 83.7908C336.425 83.7908 336.709 83.4387 336.813 82.8296L337.414 79.3062C337.518 78.7054 337.365 78.345 336.893 78.345C336.42 78.345 336.146 78.7054 336.044 79.3062L335.441 82.8296Z" fill="#263238"/>
<path d="M338.631 84.399L339.654 78.4111H338.59L338.706 77.7349H341.482L341.365 78.4111H340.301L339.276 84.399H338.631Z" fill="#263238"/>
<path d="M330.633 86.7378L330.604 86.9195H329.993L330.03 86.6987C330.131 86.1008 329.993 85.7487 329.533 85.7487C329.072 85.7487 328.805 86.1008 328.709 86.6903C328.454 88.1852 330.371 88.3277 330.049 90.2026C329.877 91.2113 329.344 91.8791 328.461 91.8791C327.579 91.8791 327.276 91.2197 327.448 90.2026L327.513 89.8226H328.117L328.044 90.2417C327.943 90.8424 328.098 91.1945 328.558 91.1945C329.019 91.1945 329.298 90.8424 329.399 90.2417C329.654 88.7552 327.744 88.6127 328.066 86.7378C328.241 85.7096 328.764 85.0613 329.63 85.0613C330.495 85.0613 330.817 85.7291 330.633 86.7378Z" fill="#263238"/>
<path d="M331.217 90.4599L330.764 91.7927H330.17L332.417 85.1286H333.351L333.317 91.7927H332.674V90.4487L331.217 90.4599ZM331.409 89.8228H332.699V85.9753L331.409 89.8228Z" fill="#263238"/>
<path d="M333.823 91.7923L334.962 85.1282H335.607L334.584 91.1161H336.235L336.118 91.7923H333.823Z" fill="#263238"/>
<path d="M339.298 88.0893L339.184 88.7543H337.771L337.359 91.1265H339.092L338.983 91.7915H336.602L337.742 85.1275H340.122L340.006 85.8008H338.273L337.882 88.0781L339.298 88.0893Z" fill="#263238"/>
<path d="M340.366 90.8783L340.208 91.8032H339.587L339.745 90.8783H340.366ZM340.184 88.2714L340.72 85.1391H341.364L340.829 88.2714L340.395 90.3279H339.91L340.184 88.2714Z" fill="#263238"/>
<path d="M341.67 90.8791L341.512 91.804H340.894L341.052 90.8791H341.67ZM341.483 88.2721L342.019 85.1399H342.664L342.128 88.2721L341.694 90.3286H341.209L341.483 88.2721Z" fill="#263238"/>
<ellipse cx="358.531" cy="-8.85139" rx="55.3292" ry="55.3292" fill="#D7EEFE"/>
<path d="M32.7368 54.5359H23.6988V51.5473H32.7368V54.5359ZM39.3137 49.5951H41.049C42.6879 49.5951 44.0536 50.0852 45.1462 51.0653C46.2549 52.0294 46.8092 53.379 46.8092 55.1143C46.8092 56.8496 46.2227 58.2074 45.0498 59.1875C43.909 60.1676 42.487 60.6577 40.7838 60.6577C39.402 60.6577 38.1889 60.3524 37.1445 59.7418C36.1162 59.1152 35.3691 58.2154 34.9031 57.0425L37.7471 55.3795C38.1488 56.7291 39.161 57.404 40.7838 57.404C41.6354 57.404 42.2942 57.2031 42.7602 56.8014C43.2422 56.3837 43.4832 55.8213 43.4832 55.1143C43.4832 54.4234 43.2502 53.8691 42.7843 53.4513C42.3183 53.0336 41.6836 52.8247 40.8802 52.8247H35.7707L36.4456 43.4493H46.0138V46.5583H39.5306L39.3137 49.5951ZM54.8141 60.6577C52.7092 60.6577 51.0542 59.8623 49.8492 58.2716C48.6602 56.6488 48.0657 54.5198 48.0657 51.8848C48.0657 49.2497 48.6602 47.1287 49.8492 45.522C51.0542 43.9152 52.7092 43.1118 54.8141 43.1118C56.9511 43.1118 58.606 43.9152 59.7789 45.522C60.968 47.1287 61.5625 49.2497 61.5625 51.8848C61.5625 54.5198 60.968 56.6488 59.7789 58.2716C58.606 59.8623 56.9511 60.6577 54.8141 60.6577ZM58.2606 51.8848C58.2606 50.0852 57.9633 48.7114 57.3688 47.7634C56.7904 46.8154 55.9388 46.3414 54.8141 46.3414C53.6893 46.3414 52.8377 46.8154 52.2593 47.7634C51.6809 48.7114 51.3917 50.0852 51.3917 51.8848C51.3917 53.6843 51.6809 55.0581 52.2593 56.0061C52.8377 56.938 53.6893 57.404 54.8141 57.404C55.9388 57.404 56.7904 56.93 57.3688 55.982C57.9633 55.034 58.2606 53.6683 58.2606 51.8848ZM69.9823 49.9325C69.195 50.6877 68.231 51.0653 67.0902 51.0653C65.9333 51.0653 64.9612 50.6797 64.1739 49.9084C63.4026 49.1372 63.017 48.1972 63.017 47.0886C63.017 45.9799 63.4026 45.04 64.1739 44.2687C64.9773 43.4975 65.9494 43.1118 67.0902 43.1118C68.247 43.1118 69.2111 43.4975 69.9823 44.2687C70.7536 45.0078 71.1392 45.9478 71.1392 47.0886C71.1392 48.2133 70.7536 49.1613 69.9823 49.9325ZM66.1743 58.6091L64.7282 57.7655L75.7185 45.5461L77.1886 46.3655L66.1743 58.6091ZM65.9815 48.1972C66.2707 48.4865 66.6322 48.6311 67.066 48.6311C67.4999 48.6311 67.8614 48.4865 68.1506 48.1972C68.4398 47.892 68.5844 47.5224 68.5844 47.0886C68.5844 46.6548 68.4398 46.2932 68.1506 46.004C67.8614 45.7148 67.4999 45.5702 67.066 45.5702C66.6322 45.5702 66.2707 45.7148 65.9815 46.004C65.7083 46.2932 65.5718 46.6548 65.5718 47.0886C65.5718 47.5224 65.7083 47.892 65.9815 48.1972ZM79.2855 56.6327C79.2855 57.7414 78.8998 58.6814 78.1286 59.4526C77.3574 60.2238 76.3933 60.6095 75.2364 60.6095C74.0796 60.6095 73.1155 60.2238 72.3443 59.4526C71.573 58.6814 71.1874 57.7414 71.1874 56.6327C71.1874 55.5241 71.573 54.5841 72.3443 53.8129C73.1155 53.0416 74.0796 52.656 75.2364 52.656C76.3933 52.656 77.3574 53.0416 78.1286 53.8129C78.8998 54.5841 79.2855 55.5241 79.2855 56.6327ZM76.2969 57.7414C76.5861 57.4361 76.7307 57.0666 76.7307 56.6327C76.7307 56.1989 76.5861 55.8374 76.2969 55.5482C76.0237 55.2429 75.6703 55.0902 75.2364 55.0902C74.8026 55.0902 74.4411 55.2429 74.1519 55.5482C73.8787 55.8374 73.7421 56.1989 73.7421 56.6327C73.7421 57.0666 73.8787 57.4361 74.1519 57.7414C74.4411 58.0306 74.8026 58.1752 75.2364 58.1752C75.6703 58.1752 76.0237 58.0306 76.2969 57.7414Z" fill="black"/>
<path d="M29.7964 80.1701V75.7306H30.8087V85.8532H29.7964V81.1245H24.3013V85.8532H23.289V75.7306H24.3013V80.1701H29.7964ZM39.1914 80.0399V78.6227H40.1459V85.8532H39.1914V84.436C38.5263 85.4965 37.5526 86.0267 36.2704 86.0267C35.2388 86.0267 34.3567 85.6604 33.624 84.9277C32.901 84.195 32.5395 83.2984 32.5395 82.238C32.5395 81.1775 32.901 80.2809 33.624 79.5482C34.3567 78.8156 35.2388 78.4492 36.2704 78.4492C37.5526 78.4492 38.5263 78.9795 39.1914 80.0399ZM34.3181 84.2769C34.8677 84.8265 35.5425 85.1012 36.3427 85.1012C37.1428 85.1012 37.8177 84.8265 38.3672 84.2769C38.9167 83.7081 39.1914 83.0285 39.1914 82.238C39.1914 81.4378 38.9167 80.763 38.3672 80.2134C37.8177 79.6543 37.1428 79.3747 36.3427 79.3747C35.5425 79.3747 34.8677 79.6543 34.3181 80.2134C33.7686 80.763 33.4939 81.4378 33.4939 82.238C33.4939 83.0285 33.7686 83.7081 34.3181 84.2769ZM47.7485 82.0934L51.624 85.8532H50.3515L46.7363 82.3681V85.8532H45.7819V78.6227H46.7363V81.8186L50.178 78.6227H51.4794L47.7485 82.0934ZM55.5084 84.6818L57.851 78.6227H58.8633L55.7687 86.5184C55.4794 87.2511 55.0745 87.815 54.554 88.2103C54.043 88.6152 53.4742 88.7935 52.8476 88.7453V87.8488C53.7152 87.9548 54.3756 87.4535 54.8287 86.3448L55.0167 85.8966L51.7775 78.6227H52.7897L55.5084 84.6818ZM63.2705 82.1078L66.0903 85.8532H64.9479L62.692 82.8742L60.4361 85.8532H59.2937L62.128 82.1078L59.4817 78.6227H60.6241L62.692 81.3558L64.7599 78.6227H65.9023L63.2705 82.1078ZM72.9391 84.9421C72.1968 85.6652 71.3002 86.0267 70.2494 86.0267C69.1793 86.0267 68.2779 85.6652 67.5452 84.9421C66.8125 84.2095 66.4462 83.3081 66.4462 82.238C66.4462 81.1679 66.8125 80.2713 67.5452 79.5482C68.2779 78.8156 69.1793 78.4492 70.2494 78.4492C71.3099 78.4492 72.2064 78.8156 72.9391 79.5482C73.6814 80.2713 74.0526 81.1679 74.0526 82.238C74.0526 83.2984 73.6814 84.1998 72.9391 84.9421ZM68.2249 84.2769C68.7744 84.8265 69.4492 85.1012 70.2494 85.1012C71.0496 85.1012 71.7244 84.8265 72.2739 84.2769C72.8234 83.7081 73.0982 83.0285 73.0982 82.238C73.0982 81.4378 72.8234 80.763 72.2739 80.2134C71.7244 79.6543 71.0496 79.3747 70.2494 79.3747C69.4492 79.3747 68.7744 79.6543 68.2249 80.2134C67.6754 80.763 67.4006 81.4378 67.4006 82.238C67.4006 83.0285 67.6754 83.7081 68.2249 84.2769ZM80.7689 81.7752V78.6227H81.7233V85.8532H80.7689V82.7007H76.6041V85.8532H75.6497V78.6227H76.6041V81.7752H80.7689ZM88.8607 81.7752V78.6227H89.8151V85.8532H88.8607V82.7007H84.696V85.8532H83.7416V78.6227H84.696V81.7752H88.8607ZM94.6967 84.6818L97.0393 78.6227H98.0516L94.957 86.5184C94.6678 87.2511 94.2629 87.815 93.7423 88.2103C93.2313 88.6152 92.6625 88.7935 92.0359 88.7453V87.8488C92.9035 87.9548 93.5639 87.4535 94.017 86.3448L94.205 85.8966L90.9658 78.6227H91.978L94.6967 84.6818ZM105.38 78.4492C106.44 78.4492 107.337 78.8156 108.07 79.5482C108.812 80.2713 109.183 81.1679 109.183 82.238C109.183 83.2984 108.812 84.1998 108.07 84.9421C107.327 85.6652 106.431 86.0267 105.38 86.0267C104.416 86.0267 103.577 85.7134 102.864 85.0867C102.16 84.4408 101.76 83.6455 101.663 82.7007H100.16V85.8532H99.2051V78.6227H100.16V81.7752H101.663C101.769 80.8208 102.17 80.0303 102.864 79.4036C103.567 78.7674 104.406 78.4492 105.38 78.4492ZM103.355 84.2769C103.905 84.8265 104.58 85.1012 105.38 85.1012C106.18 85.1012 106.855 84.8265 107.404 84.2769C107.954 83.7081 108.229 83.0285 108.229 82.238C108.229 81.4378 107.954 80.763 107.404 80.2134C106.855 79.6543 106.18 79.3747 105.38 79.3747C104.58 79.3747 103.905 79.6543 103.355 80.2134C102.806 80.763 102.531 81.4378 102.531 82.238C102.531 83.0285 102.806 83.7081 103.355 84.2769ZM120.373 78.6227H121.472V85.8532H120.518V80.0833L117.987 84.1902H117.871L115.341 80.0833V85.8532H114.386V78.6227H115.485L117.929 82.585L120.373 78.6227ZM126.835 78.4492C127.915 78.4492 128.778 78.83 129.424 79.5916C130.089 80.3436 130.422 81.2353 130.422 82.2669C130.422 82.3151 130.412 82.4645 130.393 82.7152H124.044C124.141 83.4382 124.449 84.0166 124.97 84.4505C125.49 84.8843 126.141 85.1012 126.922 85.1012C128.021 85.1012 128.797 84.6915 129.25 83.872L130.089 84.3637C129.771 84.8843 129.332 85.294 128.773 85.5929C128.223 85.8821 127.602 86.0267 126.908 86.0267C125.77 86.0267 124.844 85.67 124.131 84.9566C123.418 84.2432 123.061 83.337 123.061 82.238C123.061 81.1486 123.413 80.2472 124.117 79.5338C124.82 78.8107 125.727 78.4492 126.835 78.4492ZM126.835 79.3747C126.083 79.3747 125.452 79.5964 124.941 80.0399C124.44 80.4834 124.141 81.0666 124.044 81.7897H129.438C129.332 81.0184 129.038 80.4255 128.556 80.011C128.055 79.5868 127.481 79.3747 126.835 79.3747ZM135.15 86.0267C134.118 86.0267 133.251 85.6845 132.547 85C131.853 84.3059 131.506 83.4093 131.506 82.3103C131.506 81.0763 131.689 80.1315 132.055 79.4759C132.422 78.8107 133.164 78.2082 134.282 77.6683C134.639 77.5044 134.919 77.3791 135.121 77.2924C135.459 77.1574 135.724 77.0417 135.916 76.9453C136.755 76.5597 137.179 76.0825 137.189 75.5137L137.941 75.9475C137.893 76.1885 137.816 76.4054 137.71 76.5982C137.584 76.8103 137.459 76.979 137.334 77.1044C137.218 77.2297 137.035 77.3647 136.784 77.5093C136.62 77.6057 136.423 77.7117 136.191 77.8274L135.468 78.1311L134.788 78.4203C134.123 78.7095 133.627 79.0132 133.299 79.3313C132.981 79.6398 132.754 80.0447 132.619 80.546C132.928 80.1315 133.333 79.8182 133.834 79.6061C134.335 79.3844 134.842 79.2735 135.352 79.2735C136.317 79.2735 137.112 79.5916 137.738 80.2279C138.375 80.8545 138.693 81.6595 138.693 82.6429C138.693 83.6166 138.355 84.4264 137.681 85.0723C137.015 85.7086 136.172 86.0267 135.15 86.0267ZM133.27 84.3637C133.771 84.8361 134.398 85.0723 135.15 85.0723C135.902 85.0723 136.519 84.8457 137.001 84.3926C137.493 83.9299 137.738 83.3466 137.738 82.6429C137.738 81.9295 137.507 81.3462 137.044 80.8931C136.591 80.4304 135.984 80.199 135.222 80.199C134.538 80.199 133.916 80.4159 133.357 80.8497C132.798 81.2643 132.518 81.8331 132.518 82.5561C132.518 83.2888 132.769 83.8913 133.27 84.3637ZM143.485 78.4492C144.565 78.4492 145.428 78.83 146.073 79.5916C146.739 80.3436 147.071 81.2353 147.071 82.2669C147.071 82.3151 147.062 82.4645 147.042 82.7152H140.694C140.79 83.4382 141.099 84.0166 141.62 84.4505C142.14 84.8843 142.791 85.1012 143.572 85.1012C144.671 85.1012 145.447 84.6915 145.9 83.872L146.739 84.3637C146.421 84.8843 145.982 85.294 145.423 85.5929C144.873 85.8821 144.251 86.0267 143.557 86.0267C142.42 86.0267 141.494 85.67 140.781 84.9566C140.067 84.2432 139.711 83.337 139.711 82.238C139.711 81.1486 140.063 80.2472 140.766 79.5338C141.47 78.8107 142.376 78.4492 143.485 78.4492ZM143.485 79.3747C142.733 79.3747 142.102 79.5964 141.591 80.0399C141.089 80.4834 140.79 81.0666 140.694 81.7897H146.088C145.982 81.0184 145.688 80.4255 145.206 80.011C144.705 79.5868 144.131 79.3747 143.485 79.3747ZM149.059 78.6227H154.236V85.8532H153.282V79.5482H150.013V82.773C150.013 83.9781 149.782 84.8072 149.319 85.2603C148.866 85.7134 148.24 85.911 147.439 85.8532V84.9566C147.998 85.0144 148.408 84.8795 148.669 84.5517C148.929 84.2239 149.059 83.631 149.059 82.773V78.6227ZM157.212 81.3703H159.193C159.858 81.3703 160.427 81.5824 160.9 82.0066C161.372 82.4211 161.608 82.9562 161.608 83.6117C161.608 84.2769 161.372 84.8168 160.9 85.2314C160.446 85.6459 159.878 85.8532 159.193 85.8532H156.258V78.6227H157.212V81.3703ZM157.212 84.9277H159.193C159.608 84.9277 159.955 84.8072 160.234 84.5662C160.514 84.3155 160.654 83.9974 160.654 83.6117C160.654 83.2261 160.514 82.9128 160.234 82.6718C159.955 82.4211 159.608 82.2958 159.193 82.2958H157.212V84.9277Z" fill="black"/>
<rect x="22.1322" y="112.985" width="109.203" height="29.0676" rx="11.0658" fill="#0063A9"/>
<path d="M47.1335 123.146H52.7572V131.019H51.9699V123.888H47.9208V131.019H47.1335V123.146ZM59.1587 130.31C58.5813 130.873 57.884 131.154 57.0667 131.154C56.2344 131.154 55.5333 130.873 54.9634 130.31C54.3936 129.74 54.1086 129.039 54.1086 128.207C54.1086 127.375 54.3936 126.677 54.9634 126.115C55.5333 125.545 56.2344 125.26 57.0667 125.26C57.8915 125.26 58.5888 125.545 59.1587 126.115C59.736 126.677 60.0247 127.375 60.0247 128.207C60.0247 129.032 59.736 129.733 59.1587 130.31ZM55.4921 129.793C55.9195 130.22 56.4443 130.434 57.0667 130.434C57.689 130.434 58.2139 130.22 58.6413 129.793C59.0687 129.35 59.2824 128.822 59.2824 128.207C59.2824 127.585 59.0687 127.06 58.6413 126.632C58.2139 126.197 57.689 125.98 57.0667 125.98C56.4443 125.98 55.9195 126.197 55.4921 126.632C55.0647 127.06 54.851 127.585 54.851 128.207C54.851 128.822 55.0647 129.35 55.4921 129.793ZM65.7711 125.395V130.299H66.5585V132.526H65.8161V131.019H61.2272V132.526H60.4849V130.299H61.171C61.5534 129.789 61.7446 129.081 61.7446 128.173V125.395H65.7711ZM62.0708 130.299H65.0288V126.115H62.4869V128.173C62.4869 129.043 62.3482 129.752 62.0708 130.299ZM70.6957 125.26C71.498 125.26 72.1804 125.545 72.7427 126.115C73.3126 126.685 73.5975 127.382 73.5975 128.207C73.5975 129.032 73.3126 129.729 72.7427 130.299C72.1804 130.869 71.498 131.154 70.6957 131.154C69.6985 131.154 68.9411 130.741 68.4238 129.917V133.268H67.6814V125.395H68.4238V126.497C68.9411 125.673 69.6985 125.26 70.6957 125.26ZM69.0649 129.793C69.4922 130.22 70.0171 130.434 70.6395 130.434C71.2618 130.434 71.7867 130.22 72.2141 129.793C72.6415 129.35 72.8552 128.822 72.8552 128.207C72.8552 127.585 72.6415 127.06 72.2141 126.632C71.7867 126.197 71.2618 125.98 70.6395 125.98C70.0171 125.98 69.4922 126.197 69.0649 126.632C68.6375 127.06 68.4238 127.585 68.4238 128.207C68.4238 128.822 68.6375 129.35 69.0649 129.793ZM79.5445 130.31C78.9671 130.873 78.2698 131.154 77.4525 131.154C76.6202 131.154 75.9191 130.873 75.3492 130.31C74.7793 129.74 74.4944 129.039 74.4944 128.207C74.4944 127.375 74.7793 126.677 75.3492 126.115C75.9191 125.545 76.6202 125.26 77.4525 125.26C78.2773 125.26 78.9746 125.545 79.5445 126.115C80.1218 126.677 80.4105 127.375 80.4105 128.207C80.4105 129.032 80.1218 129.733 79.5445 130.31ZM75.8778 129.793C76.3052 130.22 76.8301 130.434 77.4525 130.434C78.0748 130.434 78.5997 130.22 79.0271 129.793C79.4545 129.35 79.6682 128.822 79.6682 128.207C79.6682 127.585 79.4545 127.06 79.0271 126.632C78.5997 126.197 78.0748 125.98 77.4525 125.98C76.8301 125.98 76.3052 126.197 75.8778 126.632C75.4504 127.06 75.2367 127.585 75.2367 128.207C75.2367 128.822 75.4504 129.35 75.8778 129.793ZM84.1496 131.154C83.3473 131.154 82.6725 130.888 82.1251 130.355C81.5852 129.815 81.3153 129.118 81.3153 128.263C81.3153 127.303 81.4578 126.569 81.7427 126.059C82.0276 125.541 82.605 125.073 83.4748 124.653C83.7522 124.525 83.9697 124.428 84.1271 124.36C84.3896 124.255 84.5958 124.165 84.7457 124.09C85.3981 123.791 85.728 123.419 85.7355 122.977L86.3204 123.314C86.2829 123.502 86.2229 123.671 86.1404 123.821C86.0429 123.985 85.9454 124.117 85.848 124.214C85.758 124.312 85.6155 124.417 85.4206 124.529C85.2931 124.604 85.1394 124.687 84.9594 124.777L84.3971 125.013L83.8684 125.238C83.3511 125.463 82.9649 125.699 82.71 125.946C82.4625 126.186 82.2863 126.501 82.1813 126.891C82.4213 126.569 82.7362 126.325 83.1261 126.16C83.516 125.987 83.9097 125.901 84.3071 125.901C85.0569 125.901 85.6755 126.149 86.1629 126.644C86.6578 127.131 86.9052 127.757 86.9052 128.522C86.9052 129.279 86.6428 129.909 86.1179 130.411C85.6005 130.906 84.9444 131.154 84.1496 131.154ZM82.6875 129.86C83.0774 130.228 83.5648 130.411 84.1496 130.411C84.7345 130.411 85.2144 130.235 85.5893 129.883C85.9717 129.523 86.1629 129.069 86.1629 128.522C86.1629 127.967 85.9829 127.513 85.623 127.161C85.2706 126.801 84.7982 126.621 84.2059 126.621C83.6735 126.621 83.1898 126.79 82.755 127.127C82.3201 127.45 82.1026 127.892 82.1026 128.454C82.1026 129.024 82.2976 129.493 82.6875 129.86ZM92.0158 127.847V125.395H92.7581V131.019H92.0158V128.567H88.7766V131.019H88.0343V125.395H88.7766V127.847H92.0158ZM96.9261 125.26C97.7659 125.26 98.4369 125.556 98.9393 126.149C99.4567 126.734 99.7154 127.427 99.7154 128.229C99.7154 128.267 99.7079 128.383 99.6929 128.578H94.7553C94.8303 129.14 95.0702 129.59 95.4752 129.928C95.8801 130.265 96.3862 130.434 96.9935 130.434C97.8483 130.434 98.4519 130.115 98.8044 129.478L99.4567 129.86C99.2093 130.265 98.8681 130.584 98.4332 130.816C98.0058 131.041 97.5222 131.154 96.9823 131.154C96.0975 131.154 95.3777 130.876 94.8228 130.321C94.2679 129.767 93.9905 129.062 93.9905 128.207C93.9905 127.36 94.2642 126.659 94.8116 126.104C95.3589 125.541 96.0638 125.26 96.9261 125.26ZM96.9261 125.98C96.3412 125.98 95.8501 126.152 95.4527 126.497C95.0627 126.842 94.8303 127.296 94.7553 127.858H98.9506C98.8681 127.258 98.6394 126.797 98.2645 126.475C97.8746 126.145 97.4284 125.98 96.9261 125.98ZM103.494 125.26C104.334 125.26 105.005 125.556 105.508 126.149C106.025 126.734 106.284 127.427 106.284 128.229C106.284 128.267 106.276 128.383 106.261 128.578H101.324C101.399 129.14 101.639 129.59 102.043 129.928C102.448 130.265 102.954 130.434 103.562 130.434C104.417 130.434 105.02 130.115 105.373 129.478L106.025 129.86C105.778 130.265 105.436 130.584 105.001 130.816C104.574 131.041 104.09 131.154 103.551 131.154C102.666 131.154 101.946 130.876 101.391 130.321C100.836 129.767 100.559 129.062 100.559 128.207C100.559 127.36 100.832 126.659 101.38 126.104C101.927 125.541 102.632 125.26 103.494 125.26ZM103.494 125.98C102.909 125.98 102.418 126.152 102.021 126.497C101.631 126.842 101.399 127.296 101.324 127.858H105.519C105.436 127.258 105.208 126.797 104.833 126.475C104.443 126.145 103.997 125.98 103.494 125.98Z" fill="white"/>
</g>
<defs>
<clipPath id="clip0_1_734">
<rect width="402" height="180" rx="9" fill="white"/>
</clipPath>
</defs>
</svg>
