<svg width="17" height="18" viewBox="0 0 17 18" fill="none" xmlns="http://www.w3.org/2000/svg">
<path fill-rule="evenodd" clip-rule="evenodd" d="M3.83774 2.7648C2.46527 3.29248 1.37214 4.59961 1.37214 6.3315C1.37214 7.70147 1.9897 9.01479 2.97867 10.2827C3.96783 11.5508 5.28773 12.7216 6.60613 13.8005C7.14297 14.2399 7.50154 14.5319 7.80023 14.7207C8.08437 14.9003 8.24851 14.9427 8.3878 14.9427C8.5271 14.9427 8.69124 14.9003 8.97537 14.7207C9.27406 14.5319 9.63263 14.2399 10.1695 13.8005C11.4879 12.7216 12.8078 11.5508 13.7969 10.2827C14.7859 9.01479 15.4035 7.70147 15.4035 6.3315C15.4035 4.59961 14.3103 3.29248 12.9379 2.7648C11.5779 2.24191 9.97787 2.49331 8.89442 3.87889C8.77375 4.03321 8.58644 4.12373 8.3878 4.12373C8.18916 4.12373 8.00186 4.03321 7.88119 3.87889C6.79774 2.49331 5.19772 2.24191 3.83774 2.7648ZM8.3878 2.5602C6.94502 1.18149 5.00024 0.977349 3.37106 1.60373C1.55459 2.30213 0.0965691 4.04204 0.0965691 6.3315C0.0965691 8.07952 0.884926 9.65531 1.96453 11.0394C3.04395 12.4232 4.45529 13.667 5.78756 14.7573L5.81775 14.782C6.31642 15.1902 6.73511 15.5328 7.10777 15.7684C7.50248 16.018 7.9094 16.1902 8.3878 16.1902C8.86621 16.1902 9.27312 16.018 9.66783 15.7684C10.0405 15.5328 10.4592 15.1902 10.9579 14.782L10.988 14.7573C12.3203 13.667 13.7317 12.4232 14.8111 11.0394C15.8907 9.65531 16.679 8.07952 16.679 6.3315C16.679 4.04204 15.221 2.30213 13.4045 1.60373C11.7754 0.977349 9.83059 1.18149 8.3878 2.5602Z" fill="#717171"/>
</svg>
